<svg xmlns="http://www.w3.org/2000/svg" xmlns:xlink="http://www.w3.org/1999/xlink" width="940" height="711.3"><rect width="940" height="711.3" rx="5" ry="5" class="a"/><svg y="0%" x="0%"><circle cx="20" cy="20" r="6" fill="#ff5f58"/><circle cx="40" cy="20" r="6" fill="#ffbd2e"/><circle cx="60" cy="20" r="6" fill="#18c132"/></svg><svg height="651.3" viewBox="0 0 90 65.13" width="900" x="15" xmlns="http://www.w3.org/2000/svg" xmlns:xlink="http://www.w3.org/1999/xlink" y="50"><style>@keyframes p{0%{transform:translateX(0)}4.38%{transform:translateX(-90px)}6.65%{transform:translateX(-180px)}7.33%{transform:translateX(-270px)}7.75%{transform:translateX(-360px)}8.17%{transform:translateX(-450px)}8.53%{transform:translateX(-540px)}8.83%{transform:translateX(-630px)}9.64%{transform:translateX(-720px)}10.24%{transform:translateX(-810px)}11.43%{transform:translateX(-900px)}12.45%{transform:translateX(-990px)}13.09%{transform:translateX(-1080px)}13.63%{transform:translateX(-1170px)}14.17%{transform:translateX(-1260px)}14.68%{transform:translateX(-1350px)}15.28%{transform:translateX(-1440px)}15.94%{transform:translateX(-1530px)}17.2%{transform:translateX(-1620px)}17.63%{transform:translateX(-1710px)}18.07%{transform:translateX(-1800px)}18.54%{transform:translateX(-1890px)}19.03%{transform:translateX(-1980px)}20.71%{transform:translateX(-2340px)}35.78%{transform:translateX(-2430px)}36.31%{transform:translateX(-2520px)}37.2%{transform:translateX(-2610px)}37.6%{transform:translateX(-2700px)}38.47%{transform:translateX(-2790px)}39.12%{transform:translateX(-2880px)}39.7%{transform:translateX(-2970px)}40.33%{transform:translateX(-3240px)}61.45%{transform:translateX(-3420px)}70.05%{transform:translateX(-3510px)}70.45%{transform:translateX(-3600px)}71.21%{transform:translateX(-3690px)}71.62%{transform:translateX(-3780px)}71.97%{transform:translateX(-3870px)}72.64%{transform:translateX(-3960px)}73.26%{transform:translateX(-4050px)}73.76%{transform:translateX(-4410px)}76.51%{transform:translateX(-4500px)}77.17%{transform:translateX(-4590px)}78.12%{transform:translateX(-4680px)}78.64%{transform:translateX(-4770px)}79.29%{transform:translateX(-4860px)}79.74%{transform:translateX(-4950px)}80.69%{transform:translateX(-5040px)}80.95%{transform:translateX(-5130px)}81.76%{transform:translateX(-5220px)}83.05%{transform:translateX(-5310px)}84.96%{transform:translateX(-5490px)}85%{transform:translateX(-5670px)}87.74%{transform:translateX(-5760px)}88.11%{transform:translateX(-5850px)}88.42%{transform:translateX(-5940px)}88.79%{transform:translateX(-6030px)}89.39%{transform:translateX(-6120px)}89.76%{transform:translateX(-6210px)}90.13%{transform:translateX(-6300px)}91.48%{transform:translateX(-6390px)}91.84%{transform:translateX(-6480px)}91.85%{transform:translateX(-6570px)}to{transform:translateX(-6660px)}}.a{fill:#282d35}.f{fill:#b9c0cb}.f,.g,.h,.i{white-space:pre}.g{fill:#b9c0cb;text-decoration:underline}.h,.i{fill:#71bef2;font-weight:700}.i{fill:#b9c0cb}.j{fill:#a8cc8c}.j,.l,.m{white-space:pre}.l{fill:#a8cc8c;font-weight:700}.m{fill:#71bef2}</style><g font-family="Monaco,Consolas,Menlo,'Bitstream Vera Sans Mono','Powerline Symbols',monospace" font-size="1.67"><defs><symbol id="1"><text y="1.67" class="f">(</text><text x="1.002" y="1.67" class="g">seashell</text><text x="9.018" y="1.67" class="f">)&gt;</text></symbol><symbol id="2"><text y="1.67" class="f">(</text><text x="1.002" y="1.67" class="g">seashell</text><text x="9.018" y="1.67" class="f">)&gt;</text><text x="12.024" y="1.67" class="f">listen</text></symbol><symbol id="3"><text y="1.67" class="f">(</text><text x="1.002" y="1.67" class="g">seashell</text><text x="9.018" y="1.67" class="f">)&gt;</text><text x="12.024" y="1.67" class="f">listen</text><text x="19.038" y="1.67" class="f">0.0.0.0</text></symbol><symbol id="4"><text y="1.67" class="f">(</text><text x="1.002" y="1.67" class="g">seashell</text><text x="9.018" y="1.67" class="f">)&gt;</text><text x="12.024" y="1.67" class="f">listen</text><text x="19.038" y="1.67" class="f">0.0.0.0</text><text x="27.054" y="1.67" class="f">8888</text></symbol><symbol id="5"><text y="1.67" class="h">[*]</text><text x="4.008" y="1.67" class="f">Listening</text><text x="14.028" y="1.67" class="f">on</text><text x="17.034" y="1.67" class="f">TCP</text><text x="21.042" y="1.67" class="f">port</text><text x="26.052" y="1.67" class="f">8888...</text></symbol><symbol id="6"><text y="1.67" class="i">[i]</text><text x="4.008" y="1.67" class="f">Use</text><text x="8.016" y="1.67" class="j">stop</text><text x="13.026" y="1.67" class="f">to</text><text x="16.032" y="1.67" class="f">stop.</text></symbol><symbol id="7"><text y="1.67" class="f">(</text><text x="1.002" y="1.67" class="g">seashell</text><text x="9.018" y="1.67" class="f">)&gt;</text><text x="12.024" y="1.67" class="f">d</text></symbol><symbol id="8"><text y="1.67" class="f">(</text><text x="1.002" y="1.67" class="g">seashell</text><text x="9.018" y="1.67" class="f">)&gt;</text><text x="12.024" y="1.67" class="f">de</text></symbol><symbol id="9"><text y="1.67" class="f">(</text><text x="1.002" y="1.67" class="g">seashell</text><text x="9.018" y="1.67" class="f">)&gt;</text><text x="12.024" y="1.67" class="f">dev</text></symbol><symbol id="10"><text y="1.67" class="f">(</text><text x="1.002" y="1.67" class="g">seashell</text><text x="9.018" y="1.67" class="f">)&gt;</text><text x="12.024" y="1.67" class="f">devi</text></symbol><symbol id="11"><text y="1.67" class="f">(</text><text x="1.002" y="1.67" class="g">seashell</text><text x="9.018" y="1.67" class="f">)&gt;</text><text x="12.024" y="1.67" class="f">devic</text></symbol><symbol id="12"><text y="1.67" class="f">(</text><text x="1.002" y="1.67" class="g">seashell</text><text x="9.018" y="1.67" class="f">)&gt;</text><text x="12.024" y="1.67" class="f">device</text></symbol><symbol id="13"><text y="1.67" class="f">(</text><text x="1.002" y="1.67" class="g">seashell</text><text x="9.018" y="1.67" class="f">)&gt;</text><text x="12.024" y="1.67" class="f">devices</text></symbol><symbol id="14"><text y="1.67" style="white-space:pre" fill="#dbab79" font-weight="700">[!]</text><text x="4.008" y="1.67" class="f">No</text><text x="7.014" y="1.67" class="f">devices</text><text x="15.03" y="1.67" class="f">connected.</text></symbol><symbol id="15"><text y="1.67" class="l">[+]</text><text x="4.008" y="1.67" class="f">New</text><text x="8.016" y="1.67" class="f">device</text><text x="15.03" y="1.67" class="f">connected</text><text x="25.05" y="1.67" class="f">-</text><text x="27.054" y="1.67" class="f">192.168.2.108!</text></symbol><symbol id="16"><text y="1.67" class="i">[i]</text><text x="4.008" y="1.67" class="f">Type</text><text x="9.018" y="1.67" class="j">devices</text><text x="17.034" y="1.67" class="f">to</text><text x="20.04" y="1.67" class="f">list</text><text x="25.05" y="1.67" class="f">all</text><text x="29.058" y="1.67" class="f">connected</text><text x="39.078" y="1.67" class="f">devices.</text></symbol><symbol id="17"><text y="1.67" class="i">[i]</text><text x="4.008" y="1.67" class="f">Type</text><text x="9.018" y="1.67" class="j">interact</text><text x="18.036" y="1.67" class="j">0</text><text x="20.04" y="1.67" class="f">to</text><text x="23.046" y="1.67" class="f">interact</text><text x="32.064" y="1.67" class="f">this</text><text x="37.074" y="1.67" class="f">device.</text></symbol><symbol id="18"><text y="1.67" class="f">Connected</text><text x="10.02" y="1.67" class="f">Devices:</text></symbol><symbol id="19"><text x="4.008" y="1.67" class="f">ID</text><text x="10.02" y="1.67" class="f">Host</text><text x="27.054" y="1.67" class="f">Port</text></symbol><symbol id="20"><text x="4.008" y="1.67" class="f">--</text><text x="10.02" y="1.67" class="f">----</text><text x="27.054" y="1.67" class="f">----</text></symbol><symbol id="21"><text x="4.008" y="1.67" class="f">0</text><text x="10.02" y="1.67" class="f">192.168.2.108</text><text x="27.054" y="1.67" class="f">8888</text></symbol><symbol id="22"><text y="1.67" class="f">(</text><text x="1.002" y="1.67" class="g">seashell</text><text x="9.018" y="1.67" class="f">)&gt;</text><text x="12.024" y="1.67" class="f">interact</text></symbol><symbol id="23"><text y="1.67" class="f">(</text><text x="1.002" y="1.67" class="g">seashell</text><text x="9.018" y="1.67" class="f">)&gt;</text><text x="12.024" y="1.67" class="f">interact</text><text x="21.042" y="1.67" class="f">0</text></symbol><symbol id="24"><text y="1.67" class="h">[*]</text><text x="4.008" y="1.67" class="f">Interacting</text><text x="16.032" y="1.67" class="f">with</text><text x="21.042" y="1.67" class="f">device</text><text x="28.056" y="1.67" class="f">0...</text></symbol><symbol id="25"><text y="1.67" class="h">[*]</text><text x="4.008" y="1.67" class="f">Loading</text><text x="12.024" y="1.67" class="f">additional</text><text x="23.046" y="1.67" class="f">bundles...</text></symbol><symbol id="26"><text y="1.67" class="l">[+]</text><text x="4.008" y="1.67" class="f">Interactive</text><text x="16.032" y="1.67" class="f">connection</text><text x="27.054" y="1.67" class="f">spawned!</text></symbol><symbol id="27"><text y="1.67" class="f">(</text><text x="1.002" y="1.67" class="g">seashell</text><text x="9.018" y="1.67" class="f">:</text><text x="11.022" y="1.67" class="m">192.168.2.108</text><text x="24.048" y="1.67" class="f">)&gt;</text></symbol><symbol id="28"><text y="1.67" class="f">(</text><text x="1.002" y="1.67" class="g">seashell</text><text x="9.018" y="1.67" class="f">:</text><text x="11.022" y="1.67" class="m">192.168.2.108</text><text x="24.048" y="1.67" class="f">)&gt;</text><text x="27.054" y="1.67" class="f">sysinfo</text></symbol><symbol id="29"><text y="1.67" class="f">*</text><text x="2.004" y="1.67" class="f">Name:</text><text x="11.022" y="1.67" class="f">iOS</text></symbol><symbol id="30"><text y="1.67" class="f">*</text><text x="2.004" y="1.67" class="f">Arch:</text><text x="11.022" y="1.67" class="f">arm64</text></symbol><symbol id="31"><text y="1.67" class="f">*</text><text x="2.004" y="1.67" class="f">Version:</text><text x="11.022" y="1.67" class="f">20D67</text></symbol><symbol id="32"><text y="1.67" class="f">*</text><text x="2.004" y="1.67" class="f">Vendor:</text><text x="11.022" y="1.67" class="f">Apple</text></symbol><symbol id="33"><text y="1.67" class="f">*</text><text x="2.004" y="1.67" class="f">UUID:</text><text x="11.022" y="1.67" class="f">4748cc39-6285-4603-8471-9d2a06936816</text></symbol><symbol id="a"><path fill="transparent" d="M0 0h90v30H0z"/></symbol><symbol id="b"><path fill="#6f7683" d="M0 0h1.102v2.171H0z"/></symbol></defs><path class="a" d="M0 0h90v65.13H0z"/><g style="animation-duration:33.242418s;animation-iteration-count:infinite;animation-name:p;animation-timing-function:steps(1,end)"><svg width="6750"><svg><use xlink:href="#a"/><use xlink:href="#b" x="-.004"/></svg><svg x="90"><use xlink:href="#a"/><use xlink:href="#b" x="11.996"/><use xlink:href="#1"/></svg><svg x="180"><use xlink:href="#a"/><use xlink:href="#b" x="12.996"/><text y="1.67" class="f">(</text><text x="1.002" y="1.67" class="g">seashell</text><text x="9.018" y="1.67" class="f">)&gt;</text><text x="12.024" y="1.67" class="f">l</text></svg><svg x="270"><use xlink:href="#a"/><use xlink:href="#b" x="13.996"/><text y="1.67" class="f">(</text><text x="1.002" y="1.67" class="g">seashell</text><text x="9.018" y="1.67" class="f">)&gt;</text><text x="12.024" y="1.67" class="f">li</text></svg><svg x="360"><use xlink:href="#a"/><use xlink:href="#b" x="14.996"/><text y="1.67" class="f">(</text><text x="1.002" y="1.67" class="g">seashell</text><text x="9.018" y="1.67" class="f">)&gt;</text><text x="12.024" y="1.67" class="f">lis</text></svg><svg x="450"><use xlink:href="#a"/><use xlink:href="#b" x="15.996"/><text y="1.67" class="f">(</text><text x="1.002" y="1.67" class="g">seashell</text><text x="9.018" y="1.67" class="f">)&gt;</text><text x="12.024" y="1.67" class="f">list</text></svg><svg x="540"><use xlink:href="#a"/><use xlink:href="#b" x="16.996"/><text y="1.67" class="f">(</text><text x="1.002" y="1.67" class="g">seashell</text><text x="9.018" y="1.67" class="f">)&gt;</text><text x="12.024" y="1.67" class="f">liste</text></svg><svg x="630"><use xlink:href="#a"/><use xlink:href="#b" x="17.996"/><use xlink:href="#2"/></svg><svg x="720"><use xlink:href="#a"/><use xlink:href="#b" x="18.996"/><use xlink:href="#2"/></svg><svg x="810"><use xlink:href="#a"/><use xlink:href="#b" x="19.996"/><text y="1.67" class="f">(</text><text x="1.002" y="1.67" class="g">seashell</text><text x="9.018" y="1.67" class="f">)&gt;</text><text x="12.024" y="1.67" class="f">listen</text><text x="19.038" y="1.67" class="f">-</text></svg><svg x="900"><use xlink:href="#a"/><use xlink:href="#b" x="18.996"/><use xlink:href="#2"/></svg><svg x="990"><use xlink:href="#a"/><use xlink:href="#b" x="19.996"/><text y="1.67" class="f">(</text><text x="1.002" y="1.67" class="g">seashell</text><text x="9.018" y="1.67" class="f">)&gt;</text><text x="12.024" y="1.67" class="f">listen</text><text x="19.038" y="1.67" class="f">0</text></svg><svg x="1080"><use xlink:href="#a"/><use xlink:href="#b" x="20.996"/><text y="1.67" class="f">(</text><text x="1.002" y="1.67" class="g">seashell</text><text x="9.018" y="1.67" class="f">)&gt;</text><text x="12.024" y="1.67" class="f">listen</text><text x="19.038" y="1.67" class="f">0.</text></svg><svg x="1170"><use xlink:href="#a"/><use xlink:href="#b" x="21.996"/><text y="1.67" class="f">(</text><text x="1.002" y="1.67" class="g">seashell</text><text x="9.018" y="1.67" class="f">)&gt;</text><text x="12.024" y="1.67" class="f">listen</text><text x="19.038" y="1.67" class="f">0.0</text></svg><svg x="1260"><use xlink:href="#a"/><use xlink:href="#b" x="22.996"/><text y="1.67" class="f">(</text><text x="1.002" y="1.67" class="g">seashell</text><text x="9.018" y="1.67" class="f">)&gt;</text><text x="12.024" y="1.67" class="f">listen</text><text x="19.038" y="1.67" class="f">0.0.</text></svg><svg x="1350"><use xlink:href="#a"/><use xlink:href="#b" x="23.996"/><text y="1.67" class="f">(</text><text x="1.002" y="1.67" class="g">seashell</text><text x="9.018" y="1.67" class="f">)&gt;</text><text x="12.024" y="1.67" class="f">listen</text><text x="19.038" y="1.67" class="f">0.0.0</text></svg><svg x="1440"><use xlink:href="#a"/><use xlink:href="#b" x="24.996"/><text y="1.67" class="f">(</text><text x="1.002" y="1.67" class="g">seashell</text><text x="9.018" y="1.67" class="f">)&gt;</text><text x="12.024" y="1.67" class="f">listen</text><text x="19.038" y="1.67" class="f">0.0.0.</text></svg><svg x="1530"><use xlink:href="#a"/><use xlink:href="#b" x="25.996"/><use xlink:href="#3"/></svg><svg x="1620"><use xlink:href="#a"/><use xlink:href="#b" x="26.996"/><use xlink:href="#3"/></svg><svg x="1710"><use xlink:href="#a"/><use xlink:href="#b" x="27.996"/><text y="1.67" class="f">(</text><text x="1.002" y="1.67" class="g">seashell</text><text x="9.018" y="1.67" class="f">)&gt;</text><text x="12.024" y="1.67" class="f">listen</text><text x="19.038" y="1.67" class="f">0.0.0.0</text><text x="27.054" y="1.67" class="f">8</text></svg><svg x="1800"><use xlink:href="#a"/><use xlink:href="#b" x="28.996"/><text y="1.67" class="f">(</text><text x="1.002" y="1.67" class="g">seashell</text><text x="9.018" y="1.67" class="f">)&gt;</text><text x="12.024" y="1.67" class="f">listen</text><text x="19.038" y="1.67" class="f">0.0.0.0</text><text x="27.054" y="1.67" class="f">88</text></svg><svg x="1890"><use xlink:href="#a"/><use xlink:href="#b" x="29.996"/><text y="1.67" class="f">(</text><text x="1.002" y="1.67" class="g">seashell</text><text x="9.018" y="1.67" class="f">)&gt;</text><text x="12.024" y="1.67" class="f">listen</text><text x="19.038" y="1.67" class="f">0.0.0.0</text><text x="27.054" y="1.67" class="f">888</text></svg><svg x="1980"><use xlink:href="#a"/><use xlink:href="#b" x="30.996"/><use xlink:href="#4"/></svg><svg x="2070"><use xlink:href="#a"/><use xlink:href="#b" x="-.004" y="2.146"/><use xlink:href="#4"/></svg><svg x="2160"><use xlink:href="#a"/><use xlink:href="#b" x="-.004" y="4.317"/><use xlink:href="#4"/><use xlink:href="#5" y="2.171"/></svg><svg x="2250"><use xlink:href="#a"/><use xlink:href="#b" x="-.004" y="6.488"/><use xlink:href="#4"/><use xlink:href="#5" y="2.171"/><use xlink:href="#6" y="4.342"/></svg><svg x="2340"><use xlink:href="#a"/><use xlink:href="#b" x="11.996" y="6.488"/><use xlink:href="#4"/><use xlink:href="#5" y="2.171"/><use xlink:href="#6" y="4.342"/><use xlink:href="#1" y="6.513"/></svg><svg x="2430"><use xlink:href="#a"/><use xlink:href="#b" x="12.996" y="6.488"/><use xlink:href="#4"/><use xlink:href="#5" y="2.171"/><use xlink:href="#6" y="4.342"/><use xlink:href="#7" y="6.513"/></svg><svg x="2520"><use xlink:href="#a"/><use xlink:href="#b" x="13.996" y="6.488"/><use xlink:href="#4"/><use xlink:href="#5" y="2.171"/><use xlink:href="#6" y="4.342"/><use xlink:href="#8" y="6.513"/></svg><svg x="2610"><use xlink:href="#a"/><use xlink:href="#b" x="14.996" y="6.488"/><use xlink:href="#4"/><use xlink:href="#5" y="2.171"/><use xlink:href="#6" y="4.342"/><use xlink:href="#9" y="6.513"/></svg><svg x="2700"><use xlink:href="#a"/><use xlink:href="#b" x="15.996" y="6.488"/><use xlink:href="#4"/><use xlink:href="#5" y="2.171"/><use xlink:href="#6" y="4.342"/><use xlink:href="#10" y="6.513"/></svg><svg x="2790"><use xlink:href="#a"/><use xlink:href="#b" x="16.996" y="6.488"/><use xlink:href="#4"/><use xlink:href="#5" y="2.171"/><use xlink:href="#6" y="4.342"/><use xlink:href="#11" y="6.513"/></svg><svg x="2880"><use xlink:href="#a"/><use xlink:href="#b" x="17.996" y="6.488"/><use xlink:href="#4"/><use xlink:href="#5" y="2.171"/><use xlink:href="#6" y="4.342"/><use xlink:href="#12" y="6.513"/></svg><svg x="2970"><use xlink:href="#a"/><use xlink:href="#b" x="18.996" y="6.488"/><use xlink:href="#4"/><use xlink:href="#5" y="2.171"/><use xlink:href="#6" y="4.342"/><use xlink:href="#13" y="6.513"/></svg><svg x="3060"><use xlink:href="#a"/><use xlink:href="#b" x="-.004" y="8.659"/><use xlink:href="#4"/><use xlink:href="#5" y="2.171"/><use xlink:href="#6" y="4.342"/><use xlink:href="#13" y="6.513"/></svg><svg x="3150"><use xlink:href="#a"/><use xlink:href="#b" x="-.004" y="10.83"/><use xlink:href="#4"/><use xlink:href="#5" y="2.171"/><use xlink:href="#6" y="4.342"/><use xlink:href="#13" y="6.513"/><use xlink:href="#14" y="8.684"/></svg><svg x="3240"><use xlink:href="#a"/><use xlink:href="#b" x="11.996" y="10.83"/><use xlink:href="#4"/><use xlink:href="#5" y="2.171"/><use xlink:href="#6" y="4.342"/><use xlink:href="#13" y="6.513"/><use xlink:href="#14" y="8.684"/><use xlink:href="#1" y="10.855"/></svg><svg x="3330"><use xlink:href="#a"/><use xlink:href="#b" x="-.004" y="13.001"/><use xlink:href="#4"/><use xlink:href="#5" y="2.171"/><use xlink:href="#6" y="4.342"/><use xlink:href="#13" y="6.513"/><use xlink:href="#14" y="8.684"/><use xlink:href="#15" y="10.855"/></svg><svg x="3420"><use xlink:href="#a"/><use xlink:href="#b" x="11.996" y="19.514"/><use xlink:href="#4"/><use xlink:href="#5" y="2.171"/><use xlink:href="#6" y="4.342"/><use xlink:href="#13" y="6.513"/><use xlink:href="#14" y="8.684"/><use xlink:href="#15" y="10.855"/><use xlink:href="#16" y="15.197"/><use xlink:href="#17" y="17.368"/><use xlink:href="#1" y="19.539"/></svg><svg x="3510"><use xlink:href="#a"/><use xlink:href="#b" x="12.996" y="19.514"/><use xlink:href="#4"/><use xlink:href="#5" y="2.171"/><use xlink:href="#6" y="4.342"/><use xlink:href="#13" y="6.513"/><use xlink:href="#14" y="8.684"/><use xlink:href="#15" y="10.855"/><use xlink:href="#16" y="15.197"/><use xlink:href="#17" y="17.368"/><use xlink:href="#7" y="19.539"/></svg><svg x="3600"><use xlink:href="#a"/><use xlink:href="#b" x="13.996" y="19.514"/><use xlink:href="#4"/><use xlink:href="#5" y="2.171"/><use xlink:href="#6" y="4.342"/><use xlink:href="#13" y="6.513"/><use xlink:href="#14" y="8.684"/><use xlink:href="#15" y="10.855"/><use xlink:href="#16" y="15.197"/><use xlink:href="#17" y="17.368"/><use xlink:href="#8" y="19.539"/></svg><svg x="3690"><use xlink:href="#a"/><use xlink:href="#b" x="14.996" y="19.514"/><use xlink:href="#4"/><use xlink:href="#5" y="2.171"/><use xlink:href="#6" y="4.342"/><use xlink:href="#13" y="6.513"/><use xlink:href="#14" y="8.684"/><use xlink:href="#15" y="10.855"/><use xlink:href="#16" y="15.197"/><use xlink:href="#17" y="17.368"/><use xlink:href="#9" y="19.539"/></svg><svg x="3780"><use xlink:href="#a"/><use xlink:href="#b" x="15.996" y="19.514"/><use xlink:href="#4"/><use xlink:href="#5" y="2.171"/><use xlink:href="#6" y="4.342"/><use xlink:href="#13" y="6.513"/><use xlink:href="#14" y="8.684"/><use xlink:href="#15" y="10.855"/><use xlink:href="#16" y="15.197"/><use xlink:href="#17" y="17.368"/><use xlink:href="#10" y="19.539"/></svg><svg x="3870"><use xlink:href="#a"/><use xlink:href="#b" x="16.996" y="19.514"/><use xlink:href="#4"/><use xlink:href="#5" y="2.171"/><use xlink:href="#6" y="4.342"/><use xlink:href="#13" y="6.513"/><use xlink:href="#14" y="8.684"/><use xlink:href="#15" y="10.855"/><use xlink:href="#16" y="15.197"/><use xlink:href="#17" y="17.368"/><use xlink:href="#11" y="19.539"/></svg><svg x="3960"><use xlink:href="#a"/><use xlink:href="#b" x="17.996" y="19.514"/><use xlink:href="#4"/><use xlink:href="#5" y="2.171"/><use xlink:href="#6" y="4.342"/><use xlink:href="#13" y="6.513"/><use xlink:href="#14" y="8.684"/><use xlink:href="#15" y="10.855"/><use xlink:href="#16" y="15.197"/><use xlink:href="#17" y="17.368"/><use xlink:href="#12" y="19.539"/></svg><svg x="4050"><use xlink:href="#a"/><use xlink:href="#b" x="18.996" y="19.514"/><use xlink:href="#4"/><use xlink:href="#5" y="2.171"/><use xlink:href="#6" y="4.342"/><use xlink:href="#13" y="6.513"/><use xlink:href="#14" y="8.684"/><use xlink:href="#15" y="10.855"/><use xlink:href="#16" y="15.197"/><use xlink:href="#17" y="17.368"/><use xlink:href="#13" y="19.539"/></svg><svg x="4140"><use xlink:href="#a"/><use xlink:href="#b" x="-.004" y="21.685"/><use xlink:href="#4"/><use xlink:href="#5" y="2.171"/><use xlink:href="#6" y="4.342"/><use xlink:href="#13" y="6.513"/><use xlink:href="#14" y="8.684"/><use xlink:href="#15" y="10.855"/><use xlink:href="#16" y="15.197"/><use xlink:href="#17" y="17.368"/><use xlink:href="#13" y="19.539"/></svg><svg x="4230"><use xlink:href="#a"/><use xlink:href="#b" x="-.004" y="30.369"/><use xlink:href="#4"/><use xlink:href="#5" y="2.171"/><use xlink:href="#6" y="4.342"/><use xlink:href="#13" y="6.513"/><use xlink:href="#14" y="8.684"/><use xlink:href="#15" y="10.855"/><use xlink:href="#16" y="15.197"/><use xlink:href="#17" y="17.368"/><use xlink:href="#13" y="19.539"/><use xlink:href="#18" y="23.881"/><use xlink:href="#19" y="28.223"/></svg><svg x="4320"><use xlink:href="#a"/><use xlink:href="#b" x="-.004" y="36.882"/><use xlink:href="#4"/><use xlink:href="#5" y="2.171"/><use xlink:href="#6" y="4.342"/><use xlink:href="#13" y="6.513"/><use xlink:href="#14" y="8.684"/><use xlink:href="#15" y="10.855"/><use xlink:href="#16" y="15.197"/><use xlink:href="#17" y="17.368"/><use xlink:href="#13" y="19.539"/><use xlink:href="#18" y="23.881"/><use xlink:href="#19" y="28.223"/><use xlink:href="#20" y="30.394"/><use xlink:href="#21" y="32.565"/></svg><svg x="4410"><use xlink:href="#a"/><use xlink:href="#b" x="11.996" y="36.882"/><use xlink:href="#4"/><use xlink:href="#5" y="2.171"/><use xlink:href="#6" y="4.342"/><use xlink:href="#13" y="6.513"/><use xlink:href="#14" y="8.684"/><use xlink:href="#15" y="10.855"/><use xlink:href="#16" y="15.197"/><use xlink:href="#17" y="17.368"/><use xlink:href="#13" y="19.539"/><use xlink:href="#18" y="23.881"/><use xlink:href="#19" y="28.223"/><use xlink:href="#20" y="30.394"/><use xlink:href="#21" y="32.565"/><use xlink:href="#1" y="36.907"/></svg><svg x="4500"><use xlink:href="#a"/><use xlink:href="#b" x="12.996" y="36.882"/><use xlink:href="#4"/><use xlink:href="#5" y="2.171"/><use xlink:href="#6" y="4.342"/><use xlink:href="#13" y="6.513"/><use xlink:href="#14" y="8.684"/><use xlink:href="#15" y="10.855"/><use xlink:href="#16" y="15.197"/><use xlink:href="#17" y="17.368"/><use xlink:href="#13" y="19.539"/><use xlink:href="#18" y="23.881"/><use xlink:href="#19" y="28.223"/><use xlink:href="#20" y="30.394"/><use xlink:href="#21" y="32.565"/><text y="38.577" class="f">(</text><text x="1.002" y="38.577" class="g">seashell</text><text x="9.018" y="38.577" class="f">)&gt;</text><text x="12.024" y="38.577" class="f">i</text></svg><svg x="4590"><use xlink:href="#a"/><use xlink:href="#b" x="13.996" y="36.882"/><use xlink:href="#4"/><use xlink:href="#5" y="2.171"/><use xlink:href="#6" y="4.342"/><use xlink:href="#13" y="6.513"/><use xlink:href="#14" y="8.684"/><use xlink:href="#15" y="10.855"/><use xlink:href="#16" y="15.197"/><use xlink:href="#17" y="17.368"/><use xlink:href="#13" y="19.539"/><use xlink:href="#18" y="23.881"/><use xlink:href="#19" y="28.223"/><use xlink:href="#20" y="30.394"/><use xlink:href="#21" y="32.565"/><text y="38.577" class="f">(</text><text x="1.002" y="38.577" class="g">seashell</text><text x="9.018" y="38.577" class="f">)&gt;</text><text x="12.024" y="38.577" class="f">in</text></svg><svg x="4680"><use xlink:href="#a"/><use xlink:href="#b" x="14.996" y="36.882"/><use xlink:href="#4"/><use xlink:href="#5" y="2.171"/><use xlink:href="#6" y="4.342"/><use xlink:href="#13" y="6.513"/><use xlink:href="#14" y="8.684"/><use xlink:href="#15" y="10.855"/><use xlink:href="#16" y="15.197"/><use xlink:href="#17" y="17.368"/><use xlink:href="#13" y="19.539"/><use xlink:href="#18" y="23.881"/><use xlink:href="#19" y="28.223"/><use xlink:href="#20" y="30.394"/><use xlink:href="#21" y="32.565"/><text y="38.577" class="f">(</text><text x="1.002" y="38.577" class="g">seashell</text><text x="9.018" y="38.577" class="f">)&gt;</text><text x="12.024" y="38.577" class="f">int</text></svg><svg x="4770"><use xlink:href="#a"/><use xlink:href="#b" x="15.996" y="36.882"/><use xlink:href="#4"/><use xlink:href="#5" y="2.171"/><use xlink:href="#6" y="4.342"/><use xlink:href="#13" y="6.513"/><use xlink:href="#14" y="8.684"/><use xlink:href="#15" y="10.855"/><use xlink:href="#16" y="15.197"/><use xlink:href="#17" y="17.368"/><use xlink:href="#13" y="19.539"/><use xlink:href="#18" y="23.881"/><use xlink:href="#19" y="28.223"/><use xlink:href="#20" y="30.394"/><use xlink:href="#21" y="32.565"/><text y="38.577" class="f">(</text><text x="1.002" y="38.577" class="g">seashell</text><text x="9.018" y="38.577" class="f">)&gt;</text><text x="12.024" y="38.577" class="f">inte</text></svg><svg x="4860"><use xlink:href="#a"/><use xlink:href="#b" x="16.996" y="36.882"/><use xlink:href="#4"/><use xlink:href="#5" y="2.171"/><use xlink:href="#6" y="4.342"/><use xlink:href="#13" y="6.513"/><use xlink:href="#14" y="8.684"/><use xlink:href="#15" y="10.855"/><use xlink:href="#16" y="15.197"/><use xlink:href="#17" y="17.368"/><use xlink:href="#13" y="19.539"/><use xlink:href="#18" y="23.881"/><use xlink:href="#19" y="28.223"/><use xlink:href="#20" y="30.394"/><use xlink:href="#21" y="32.565"/><text y="38.577" class="f">(</text><text x="1.002" y="38.577" class="g">seashell</text><text x="9.018" y="38.577" class="f">)&gt;</text><text x="12.024" y="38.577" class="f">inter</text></svg><svg x="4950"><use xlink:href="#a"/><use xlink:href="#b" x="17.996" y="36.882"/><use xlink:href="#4"/><use xlink:href="#5" y="2.171"/><use xlink:href="#6" y="4.342"/><use xlink:href="#13" y="6.513"/><use xlink:href="#14" y="8.684"/><use xlink:href="#15" y="10.855"/><use xlink:href="#16" y="15.197"/><use xlink:href="#17" y="17.368"/><use xlink:href="#13" y="19.539"/><use xlink:href="#18" y="23.881"/><use xlink:href="#19" y="28.223"/><use xlink:href="#20" y="30.394"/><use xlink:href="#21" y="32.565"/><text y="38.577" class="f">(</text><text x="1.002" y="38.577" class="g">seashell</text><text x="9.018" y="38.577" class="f">)&gt;</text><text x="12.024" y="38.577" class="f">intera</text></svg><svg x="5040"><use xlink:href="#a"/><use xlink:href="#b" x="18.996" y="36.882"/><use xlink:href="#4"/><use xlink:href="#5" y="2.171"/><use xlink:href="#6" y="4.342"/><use xlink:href="#13" y="6.513"/><use xlink:href="#14" y="8.684"/><use xlink:href="#15" y="10.855"/><use xlink:href="#16" y="15.197"/><use xlink:href="#17" y="17.368"/><use xlink:href="#13" y="19.539"/><use xlink:href="#18" y="23.881"/><use xlink:href="#19" y="28.223"/><use xlink:href="#20" y="30.394"/><use xlink:href="#21" y="32.565"/><text y="38.577" class="f">(</text><text x="1.002" y="38.577" class="g">seashell</text><text x="9.018" y="38.577" class="f">)&gt;</text><text x="12.024" y="38.577" class="f">interac</text></svg><svg x="5130"><use xlink:href="#a"/><use xlink:href="#b" x="19.996" y="36.882"/><use xlink:href="#4"/><use xlink:href="#5" y="2.171"/><use xlink:href="#6" y="4.342"/><use xlink:href="#13" y="6.513"/><use xlink:href="#14" y="8.684"/><use xlink:href="#15" y="10.855"/><use xlink:href="#16" y="15.197"/><use xlink:href="#17" y="17.368"/><use xlink:href="#13" y="19.539"/><use xlink:href="#18" y="23.881"/><use xlink:href="#19" y="28.223"/><use xlink:href="#20" y="30.394"/><use xlink:href="#21" y="32.565"/><use xlink:href="#22" y="36.907"/></svg><svg x="5220"><use xlink:href="#a"/><use xlink:href="#b" x="20.996" y="36.882"/><use xlink:href="#4"/><use xlink:href="#5" y="2.171"/><use xlink:href="#6" y="4.342"/><use xlink:href="#13" y="6.513"/><use xlink:href="#14" y="8.684"/><use xlink:href="#15" y="10.855"/><use xlink:href="#16" y="15.197"/><use xlink:href="#17" y="17.368"/><use xlink:href="#13" y="19.539"/><use xlink:href="#18" y="23.881"/><use xlink:href="#19" y="28.223"/><use xlink:href="#20" y="30.394"/><use xlink:href="#21" y="32.565"/><use xlink:href="#22" y="36.907"/></svg><svg x="5310"><use xlink:href="#a"/><use xlink:href="#b" x="21.996" y="36.882"/><use xlink:href="#4"/><use xlink:href="#5" y="2.171"/><use xlink:href="#6" y="4.342"/><use xlink:href="#13" y="6.513"/><use xlink:href="#14" y="8.684"/><use xlink:href="#15" y="10.855"/><use xlink:href="#16" y="15.197"/><use xlink:href="#17" y="17.368"/><use xlink:href="#13" y="19.539"/><use xlink:href="#18" y="23.881"/><use xlink:href="#19" y="28.223"/><use xlink:href="#20" y="30.394"/><use xlink:href="#21" y="32.565"/><use xlink:href="#23" y="36.907"/></svg><svg x="5400"><use xlink:href="#a"/><use xlink:href="#b" x="-.004" y="39.053"/><use xlink:href="#4"/><use xlink:href="#5" y="2.171"/><use xlink:href="#6" y="4.342"/><use xlink:href="#13" y="6.513"/><use xlink:href="#14" y="8.684"/><use xlink:href="#15" y="10.855"/><use xlink:href="#16" y="15.197"/><use xlink:href="#17" y="17.368"/><use xlink:href="#13" y="19.539"/><use xlink:href="#18" y="23.881"/><use xlink:href="#19" y="28.223"/><use xlink:href="#20" y="30.394"/><use xlink:href="#21" y="32.565"/><use xlink:href="#23" y="36.907"/></svg><svg x="5490"><use xlink:href="#a"/><use xlink:href="#b" x="-.004" y="43.395"/><use xlink:href="#4"/><use xlink:href="#5" y="2.171"/><use xlink:href="#6" y="4.342"/><use xlink:href="#13" y="6.513"/><use xlink:href="#14" y="8.684"/><use xlink:href="#15" y="10.855"/><use xlink:href="#16" y="15.197"/><use xlink:href="#17" y="17.368"/><use xlink:href="#13" y="19.539"/><use xlink:href="#18" y="23.881"/><use xlink:href="#19" y="28.223"/><use xlink:href="#20" y="30.394"/><use xlink:href="#21" y="32.565"/><use xlink:href="#23" y="36.907"/><use xlink:href="#24" y="39.078"/><use xlink:href="#25" y="41.249"/></svg><svg x="5580"><use xlink:href="#a"/><use xlink:href="#b" x="-.004" y="47.737"/><use xlink:href="#4"/><use xlink:href="#5" y="2.171"/><use xlink:href="#6" y="4.342"/><use xlink:href="#13" y="6.513"/><use xlink:href="#14" y="8.684"/><use xlink:href="#15" y="10.855"/><use xlink:href="#16" y="15.197"/><use xlink:href="#17" y="17.368"/><use xlink:href="#13" y="19.539"/><use xlink:href="#18" y="23.881"/><use xlink:href="#19" y="28.223"/><use xlink:href="#20" y="30.394"/><use xlink:href="#21" y="32.565"/><use xlink:href="#23" y="36.907"/><use xlink:href="#24" y="39.078"/><use xlink:href="#25" y="41.249"/><use xlink:href="#26" y="43.42"/></svg><svg x="5670"><use xlink:href="#a"/><use xlink:href="#b" x="26.996" y="47.737"/><use xlink:href="#4"/><use xlink:href="#5" y="2.171"/><use xlink:href="#6" y="4.342"/><use xlink:href="#13" y="6.513"/><use xlink:href="#14" y="8.684"/><use xlink:href="#15" y="10.855"/><use xlink:href="#16" y="15.197"/><use xlink:href="#17" y="17.368"/><use xlink:href="#13" y="19.539"/><use xlink:href="#18" y="23.881"/><use xlink:href="#19" y="28.223"/><use xlink:href="#20" y="30.394"/><use xlink:href="#21" y="32.565"/><use xlink:href="#23" y="36.907"/><use xlink:href="#24" y="39.078"/><use xlink:href="#25" y="41.249"/><use xlink:href="#26" y="43.42"/><use xlink:href="#27" y="47.762"/></svg><svg x="5760"><use xlink:href="#a"/><use xlink:href="#b" x="27.996" y="47.737"/><use xlink:href="#4"/><use xlink:href="#5" y="2.171"/><use xlink:href="#6" y="4.342"/><use xlink:href="#13" y="6.513"/><use xlink:href="#14" y="8.684"/><use xlink:href="#15" y="10.855"/><use xlink:href="#16" y="15.197"/><use xlink:href="#17" y="17.368"/><use xlink:href="#13" y="19.539"/><use xlink:href="#18" y="23.881"/><use xlink:href="#19" y="28.223"/><use xlink:href="#20" y="30.394"/><use xlink:href="#21" y="32.565"/><use xlink:href="#23" y="36.907"/><use xlink:href="#24" y="39.078"/><use xlink:href="#25" y="41.249"/><use xlink:href="#26" y="43.42"/><text y="49.432" class="f">(</text><text x="1.002" y="49.432" class="g">seashell</text><text x="9.018" y="49.432" class="f">:</text><text x="11.022" y="49.432" class="m">192.168.2.108</text><text x="24.048" y="49.432" class="f">)&gt;</text><text x="27.054" y="49.432" class="f">s</text></svg><svg x="5850"><use xlink:href="#a"/><use xlink:href="#b" x="28.996" y="47.737"/><use xlink:href="#4"/><use xlink:href="#5" y="2.171"/><use xlink:href="#6" y="4.342"/><use xlink:href="#13" y="6.513"/><use xlink:href="#14" y="8.684"/><use xlink:href="#15" y="10.855"/><use xlink:href="#16" y="15.197"/><use xlink:href="#17" y="17.368"/><use xlink:href="#13" y="19.539"/><use xlink:href="#18" y="23.881"/><use xlink:href="#19" y="28.223"/><use xlink:href="#20" y="30.394"/><use xlink:href="#21" y="32.565"/><use xlink:href="#23" y="36.907"/><use xlink:href="#24" y="39.078"/><use xlink:href="#25" y="41.249"/><use xlink:href="#26" y="43.42"/><text y="49.432" class="f">(</text><text x="1.002" y="49.432" class="g">seashell</text><text x="9.018" y="49.432" class="f">:</text><text x="11.022" y="49.432" class="m">192.168.2.108</text><text x="24.048" y="49.432" class="f">)&gt;</text><text x="27.054" y="49.432" class="f">sy</text></svg><svg x="5940"><use xlink:href="#a"/><use xlink:href="#b" x="29.996" y="47.737"/><use xlink:href="#4"/><use xlink:href="#5" y="2.171"/><use xlink:href="#6" y="4.342"/><use xlink:href="#13" y="6.513"/><use xlink:href="#14" y="8.684"/><use xlink:href="#15" y="10.855"/><use xlink:href="#16" y="15.197"/><use xlink:href="#17" y="17.368"/><use xlink:href="#13" y="19.539"/><use xlink:href="#18" y="23.881"/><use xlink:href="#19" y="28.223"/><use xlink:href="#20" y="30.394"/><use xlink:href="#21" y="32.565"/><use xlink:href="#23" y="36.907"/><use xlink:href="#24" y="39.078"/><use xlink:href="#25" y="41.249"/><use xlink:href="#26" y="43.42"/><text y="49.432" class="f">(</text><text x="1.002" y="49.432" class="g">seashell</text><text x="9.018" y="49.432" class="f">:</text><text x="11.022" y="49.432" class="m">192.168.2.108</text><text x="24.048" y="49.432" class="f">)&gt;</text><text x="27.054" y="49.432" class="f">sys</text></svg><svg x="6030"><use xlink:href="#a"/><use xlink:href="#b" x="30.996" y="47.737"/><use xlink:href="#4"/><use xlink:href="#5" y="2.171"/><use xlink:href="#6" y="4.342"/><use xlink:href="#13" y="6.513"/><use xlink:href="#14" y="8.684"/><use xlink:href="#15" y="10.855"/><use xlink:href="#16" y="15.197"/><use xlink:href="#17" y="17.368"/><use xlink:href="#13" y="19.539"/><use xlink:href="#18" y="23.881"/><use xlink:href="#19" y="28.223"/><use xlink:href="#20" y="30.394"/><use xlink:href="#21" y="32.565"/><use xlink:href="#23" y="36.907"/><use xlink:href="#24" y="39.078"/><use xlink:href="#25" y="41.249"/><use xlink:href="#26" y="43.42"/><text y="49.432" class="f">(</text><text x="1.002" y="49.432" class="g">seashell</text><text x="9.018" y="49.432" class="f">:</text><text x="11.022" y="49.432" class="m">192.168.2.108</text><text x="24.048" y="49.432" class="f">)&gt;</text><text x="27.054" y="49.432" class="f">sysi</text></svg><svg x="6120"><use xlink:href="#a"/><use xlink:href="#b" x="31.996" y="47.737"/><use xlink:href="#4"/><use xlink:href="#5" y="2.171"/><use xlink:href="#6" y="4.342"/><use xlink:href="#13" y="6.513"/><use xlink:href="#14" y="8.684"/><use xlink:href="#15" y="10.855"/><use xlink:href="#16" y="15.197"/><use xlink:href="#17" y="17.368"/><use xlink:href="#13" y="19.539"/><use xlink:href="#18" y="23.881"/><use xlink:href="#19" y="28.223"/><use xlink:href="#20" y="30.394"/><use xlink:href="#21" y="32.565"/><use xlink:href="#23" y="36.907"/><use xlink:href="#24" y="39.078"/><use xlink:href="#25" y="41.249"/><use xlink:href="#26" y="43.42"/><text y="49.432" class="f">(</text><text x="1.002" y="49.432" class="g">seashell</text><text x="9.018" y="49.432" class="f">:</text><text x="11.022" y="49.432" class="m">192.168.2.108</text><text x="24.048" y="49.432" class="f">)&gt;</text><text x="27.054" y="49.432" class="f">sysin</text></svg><svg x="6210"><use xlink:href="#a"/><use xlink:href="#b" x="32.996" y="47.737"/><use xlink:href="#4"/><use xlink:href="#5" y="2.171"/><use xlink:href="#6" y="4.342"/><use xlink:href="#13" y="6.513"/><use xlink:href="#14" y="8.684"/><use xlink:href="#15" y="10.855"/><use xlink:href="#16" y="15.197"/><use xlink:href="#17" y="17.368"/><use xlink:href="#13" y="19.539"/><use xlink:href="#18" y="23.881"/><use xlink:href="#19" y="28.223"/><use xlink:href="#20" y="30.394"/><use xlink:href="#21" y="32.565"/><use xlink:href="#23" y="36.907"/><use xlink:href="#24" y="39.078"/><use xlink:href="#25" y="41.249"/><use xlink:href="#26" y="43.42"/><text y="49.432" class="f">(</text><text x="1.002" y="49.432" class="g">seashell</text><text x="9.018" y="49.432" class="f">:</text><text x="11.022" y="49.432" class="m">192.168.2.108</text><text x="24.048" y="49.432" class="f">)&gt;</text><text x="27.054" y="49.432" class="f">sysinf</text></svg><svg x="6300"><use xlink:href="#a"/><use xlink:href="#b" x="33.996" y="47.737"/><use xlink:href="#4"/><use xlink:href="#5" y="2.171"/><use xlink:href="#6" y="4.342"/><use xlink:href="#13" y="6.513"/><use xlink:href="#14" y="8.684"/><use xlink:href="#15" y="10.855"/><use xlink:href="#16" y="15.197"/><use xlink:href="#17" y="17.368"/><use xlink:href="#13" y="19.539"/><use xlink:href="#18" y="23.881"/><use xlink:href="#19" y="28.223"/><use xlink:href="#20" y="30.394"/><use xlink:href="#21" y="32.565"/><use xlink:href="#23" y="36.907"/><use xlink:href="#24" y="39.078"/><use xlink:href="#25" y="41.249"/><use xlink:href="#26" y="43.42"/><use xlink:href="#28" y="47.762"/></svg><svg x="6390"><use xlink:href="#a"/><use xlink:href="#b" x="-.004" y="49.908"/><use xlink:href="#4"/><use xlink:href="#5" y="2.171"/><use xlink:href="#6" y="4.342"/><use xlink:href="#13" y="6.513"/><use xlink:href="#14" y="8.684"/><use xlink:href="#15" y="10.855"/><use xlink:href="#16" y="15.197"/><use xlink:href="#17" y="17.368"/><use xlink:href="#13" y="19.539"/><use xlink:href="#18" y="23.881"/><use xlink:href="#19" y="28.223"/><use xlink:href="#20" y="30.394"/><use xlink:href="#21" y="32.565"/><use xlink:href="#23" y="36.907"/><use xlink:href="#24" y="39.078"/><use xlink:href="#25" y="41.249"/><use xlink:href="#26" y="43.42"/><use xlink:href="#28" y="47.762"/></svg><svg x="6480"><use xlink:href="#a"/><use xlink:href="#b" x="-.004" y="60.763"/><use xlink:href="#4"/><use xlink:href="#5" y="2.171"/><use xlink:href="#6" y="4.342"/><use xlink:href="#13" y="6.513"/><use xlink:href="#14" y="8.684"/><use xlink:href="#15" y="10.855"/><use xlink:href="#16" y="15.197"/><use xlink:href="#17" y="17.368"/><use xlink:href="#13" y="19.539"/><use xlink:href="#18" y="23.881"/><use xlink:href="#19" y="28.223"/><use xlink:href="#20" y="30.394"/><use xlink:href="#21" y="32.565"/><use xlink:href="#23" y="36.907"/><use xlink:href="#24" y="39.078"/><use xlink:href="#25" y="41.249"/><use xlink:href="#26" y="43.42"/><use xlink:href="#28" y="47.762"/><use xlink:href="#29" y="49.933"/><use xlink:href="#30" y="52.104"/><use xlink:href="#31" y="54.275"/><use xlink:href="#32" y="56.446"/><use xlink:href="#33" y="58.617"/></svg><svg x="6570"><use xlink:href="#a"/><use xlink:href="#b" x="26.996" y="60.763"/><use xlink:href="#4"/><use xlink:href="#5" y="2.171"/><use xlink:href="#6" y="4.342"/><use xlink:href="#13" y="6.513"/><use xlink:href="#14" y="8.684"/><use xlink:href="#15" y="10.855"/><use xlink:href="#16" y="15.197"/><use xlink:href="#17" y="17.368"/><use xlink:href="#13" y="19.539"/><use xlink:href="#18" y="23.881"/><use xlink:href="#19" y="28.223"/><use xlink:href="#20" y="30.394"/><use xlink:href="#21" y="32.565"/><use xlink:href="#23" y="36.907"/><use xlink:href="#24" y="39.078"/><use xlink:href="#25" y="41.249"/><use xlink:href="#26" y="43.42"/><use xlink:href="#28" y="47.762"/><use xlink:href="#29" y="49.933"/><use xlink:href="#30" y="52.104"/><use xlink:href="#31" y="54.275"/><use xlink:href="#32" y="56.446"/><use xlink:href="#33" y="58.617"/><use xlink:href="#27" y="60.788"/></svg><svg x="6660"><use xlink:href="#a"/><use xlink:href="#b" x="26.996" y="60.763"/><use xlink:href="#4"/><use xlink:href="#5" y="2.171"/><use xlink:href="#6" y="4.342"/><use xlink:href="#13" y="6.513"/><use xlink:href="#14" y="8.684"/><use xlink:href="#15" y="10.855"/><use xlink:href="#16" y="15.197"/><use xlink:href="#17" y="17.368"/><use xlink:href="#13" y="19.539"/><use xlink:href="#18" y="23.881"/><use xlink:href="#19" y="28.223"/><use xlink:href="#20" y="30.394"/><use xlink:href="#21" y="32.565"/><use xlink:href="#23" y="36.907"/><use xlink:href="#24" y="39.078"/><use xlink:href="#25" y="41.249"/><use xlink:href="#26" y="43.42"/><use xlink:href="#28" y="47.762"/><use xlink:href="#29" y="49.933"/><use xlink:href="#30" y="52.104"/><use xlink:href="#31" y="54.275"/><use xlink:href="#32" y="56.446"/><use xlink:href="#33" y="58.617"/><use xlink:href="#27" y="60.788"/></svg></svg></g></g></svg></svg>