<svg xmlns="http://www.w3.org/2000/svg" xmlns:xlink="http://www.w3.org/1999/xlink" width="940" height="711.3"><rect width="940" height="711.3" rx="5" ry="5" class="a"/><svg y="0%" x="0%"><circle cx="20" cy="20" r="6" fill="#ff5f58"/><circle cx="40" cy="20" r="6" fill="#ffbd2e"/><circle cx="60" cy="20" r="6" fill="#18c132"/></svg><svg height="651.3" viewBox="0 0 90 65.13" width="900" x="15" xmlns="http://www.w3.org/2000/svg" xmlns:xlink="http://www.w3.org/1999/xlink" y="50"><style>@keyframes p{0%{transform:translateX(0)}6.65%{transform:translateX(-90px)}10.44%{transform:translateX(-180px)}11.9%{transform:translateX(-270px)}15.93%{transform:translateX(-360px)}16.43%{transform:translateX(-450px)}16.96%{transform:translateX(-540px)}17.32%{transform:translateX(-630px)}17.88%{transform:translateX(-720px)}18.21%{transform:translateX(-810px)}18.83%{transform:translateX(-900px)}19.06%{transform:translateX(-990px)}19.66%{transform:translateX(-1080px)}20.49%{transform:translateX(-1170px)}20.97%{transform:translateX(-1260px)}21.48%{transform:translateX(-1350px)}22.85%{transform:translateX(-1440px)}23.51%{transform:translateX(-1530px)}24.25%{transform:translateX(-1620px)}24.75%{transform:translateX(-1710px)}25.52%{transform:translateX(-1800px)}26.1%{transform:translateX(-1890px)}27.67%{transform:translateX(-1980px)}28.22%{transform:translateX(-2070px)}28.78%{transform:translateX(-2160px)}29.26%{transform:translateX(-2250px)}29.85%{transform:translateX(-2340px)}31.72%{transform:translateX(-2520px)}31.73%{transform:translateX(-2700px)}47.96%{transform:translateX(-2790px)}48.49%{transform:translateX(-2880px)}49.73%{transform:translateX(-2970px)}50.79%{transform:translateX(-3060px)}51.94%{transform:translateX(-3150px)}52.97%{transform:translateX(-3240px)}53.37%{transform:translateX(-3330px)}53.97%{transform:translateX(-3420px)}55.14%{transform:translateX(-3510px)}55.65%{transform:translateX(-3600px)}57.1%{transform:translateX(-3690px)}57.95%{transform:translateX(-3780px)}59.05%{transform:translateX(-3870px)}59.06%{transform:translateX(-4050px)}67.7%{transform:translateX(-4140px)}67.84%{transform:translateX(-4230px)}71.47%{transform:translateX(-4320px)}72.03%{transform:translateX(-4410px)}73.06%{transform:translateX(-4500px)}73.52%{transform:translateX(-4590px)}74%{transform:translateX(-4680px)}74.66%{transform:translateX(-4770px)}75.32%{transform:translateX(-4860px)}75.75%{transform:translateX(-4950px)}76.45%{transform:translateX(-5040px)}77.38%{transform:translateX(-5130px)}78.53%{transform:translateX(-5670px)}80.26%{transform:translateX(-5760px)}80.72%{transform:translateX(-5850px)}81.65%{transform:translateX(-5940px)}82.13%{transform:translateX(-6030px)}82.6%{transform:translateX(-6120px)}83.28%{transform:translateX(-6210px)}83.9%{transform:translateX(-6300px)}84.28%{transform:translateX(-6390px)}85.01%{transform:translateX(-6480px)}85.88%{transform:translateX(-6570px)}86.36%{transform:translateX(-6660px)}86.68%{transform:translateX(-6750px)}88.74%{transform:translateX(-6930px)}88.78%{transform:translateX(-7020px)}89.07%{transform:translateX(-7110px)}93.52%{transform:translateX(-7200px)}93.95%{transform:translateX(-7290px)}94.25%{transform:translateX(-7380px)}94.66%{transform:translateX(-7470px)}95.4%{transform:translateX(-7560px)}95.83%{transform:translateX(-7650px)}96.27%{transform:translateX(-7740px)}97.7%{transform:translateX(-7830px)}97.9%{transform:translateX(-8010px)}98.05%{transform:translateX(-8100px)}to{transform:translateX(-8190px)}}.a{fill:#282d35}.f{fill:#b9c0cb}.f,.g,.h,.i{white-space:pre}.g{fill:#b9c0cb;text-decoration:underline}.h,.i{fill:#71bef2;font-weight:700}.i{fill:#b9c0cb}.j{fill:#a8cc8c}.j,.l,.m{white-space:pre}.l{fill:#a8cc8c;font-weight:700}.m{fill:#71bef2}</style><g font-family="Monaco,Consolas,Menlo,'Bitstream Vera Sans Mono','Powerline Symbols',monospace" font-size="1.67"><defs><symbol id="1"><text y="1.67" class="f">(</text><text x="1.002" y="1.67" class="g">seashell</text><text x="9.018" y="1.67" class="f">)&gt;</text></symbol><symbol id="2"><text y="1.67" class="f">(</text><text x="1.002" y="1.67" class="g">seashell</text><text x="9.018" y="1.67" class="f">)&gt;</text><text x="12.024" y="1.67" class="f">listener</text></symbol><symbol id="3"><text y="1.67" class="f">(</text><text x="1.002" y="1.67" class="g">seashell</text><text x="9.018" y="1.67" class="f">)&gt;</text><text x="12.024" y="1.67" class="f">listener</text><text x="21.042" y="1.67" class="f">on</text></symbol><symbol id="4"><text y="1.67" class="f">(</text><text x="1.002" y="1.67" class="g">seashell</text><text x="9.018" y="1.67" class="f">)&gt;</text><text x="12.024" y="1.67" class="f">listener</text><text x="21.042" y="1.67" class="f">on</text><text x="24.048" y="1.67" class="f">0.0.0.0</text></symbol><symbol id="5"><text y="1.67" class="f">(</text><text x="1.002" y="1.67" class="g">seashell</text><text x="9.018" y="1.67" class="f">)&gt;</text><text x="12.024" y="1.67" class="f">listener</text><text x="21.042" y="1.67" class="f">on</text><text x="24.048" y="1.67" class="f">0.0.0.0</text><text x="32.064" y="1.67" class="f">8888</text></symbol><symbol id="6"><text y="1.67" class="h">[*]</text><text x="4.008" y="1.67" class="f">Listening</text><text x="14.028" y="1.67" class="f">on</text><text x="17.034" y="1.67" class="f">TCP</text><text x="21.042" y="1.67" class="f">port</text><text x="26.052" y="1.67" class="f">8888...</text></symbol><symbol id="7"><text y="1.67" class="i">[i]</text><text x="4.008" y="1.67" class="f">Use</text><text x="8.016" y="1.67" class="j">listener</text><text x="17.034" y="1.67" class="j">off</text><text x="21.042" y="1.67" class="f">to</text><text x="24.048" y="1.67" class="f">stop.</text></symbol><symbol id="8"><text y="1.67" class="f">(</text><text x="1.002" y="1.67" class="g">seashell</text><text x="9.018" y="1.67" class="f">)&gt;</text><text x="12.024" y="1.67" class="f">d</text></symbol><symbol id="9"><text y="1.67" class="f">(</text><text x="1.002" y="1.67" class="g">seashell</text><text x="9.018" y="1.67" class="f">)&gt;</text><text x="12.024" y="1.67" class="f">de</text></symbol><symbol id="10"><text y="1.67" class="f">(</text><text x="1.002" y="1.67" class="g">seashell</text><text x="9.018" y="1.67" class="f">)&gt;</text><text x="12.024" y="1.67" class="f">dev</text></symbol><symbol id="11"><text y="1.67" class="f">(</text><text x="1.002" y="1.67" class="g">seashell</text><text x="9.018" y="1.67" class="f">)&gt;</text><text x="12.024" y="1.67" class="f">devi</text></symbol><symbol id="12"><text y="1.67" class="f">(</text><text x="1.002" y="1.67" class="g">seashell</text><text x="9.018" y="1.67" class="f">)&gt;</text><text x="12.024" y="1.67" class="f">devic</text></symbol><symbol id="13"><text y="1.67" class="f">(</text><text x="1.002" y="1.67" class="g">seashell</text><text x="9.018" y="1.67" class="f">)&gt;</text><text x="12.024" y="1.67" class="f">device</text></symbol><symbol id="14"><text y="1.67" class="f">(</text><text x="1.002" y="1.67" class="g">seashell</text><text x="9.018" y="1.67" class="f">)&gt;</text><text x="12.024" y="1.67" class="f">devices</text></symbol><symbol id="15"><text y="1.67" class="f">(</text><text x="1.002" y="1.67" class="g">seashell</text><text x="9.018" y="1.67" class="f">)&gt;</text><text x="12.024" y="1.67" class="f">devices</text><text x="20.04" y="1.67" class="f">-</text></symbol><symbol id="16"><text y="1.67" class="f">(</text><text x="1.002" y="1.67" class="g">seashell</text><text x="9.018" y="1.67" class="f">)&gt;</text><text x="12.024" y="1.67" class="f">devices</text><text x="20.04" y="1.67" class="f">-l</text></symbol><symbol id="17"><text y="1.67" style="white-space:pre" fill="#dbab79" font-weight="700">[!]</text><text x="4.008" y="1.67" class="f">No</text><text x="7.014" y="1.67" class="f">devices</text><text x="15.03" y="1.67" class="f">connected.</text></symbol><symbol id="18"><text y="1.67" class="l">[+]</text><text x="4.008" y="1.67" class="f">New</text><text x="8.016" y="1.67" class="f">device</text><text x="15.03" y="1.67" class="f">connected</text><text x="25.05" y="1.67" class="f">-</text><text x="27.054" y="1.67" class="f">192.168.2.106!</text></symbol><symbol id="19"><text y="1.67" class="i">[i]</text><text x="4.008" y="1.67" class="f">Type</text><text x="9.018" y="1.67" class="j">devices</text><text x="17.034" y="1.67" class="j">-l</text><text x="20.04" y="1.67" class="f">to</text><text x="23.046" y="1.67" class="f">list</text><text x="28.056" y="1.67" class="f">all</text><text x="32.064" y="1.67" class="f">connected</text><text x="42.084" y="1.67" class="f">devices.</text></symbol><symbol id="20"><text y="1.67" class="i">[i]</text><text x="4.008" y="1.67" class="f">Type</text><text x="9.018" y="1.67" class="j">devices</text><text x="17.034" y="1.67" class="j">-i</text><text x="20.04" y="1.67" class="j">0</text><text x="22.044" y="1.67" class="f">to</text><text x="25.05" y="1.67" class="f">interact</text><text x="34.068" y="1.67" class="f">this</text><text x="39.078" y="1.67" class="f">device.</text></symbol><symbol id="21"><text y="1.67" class="f">Connected</text><text x="10.02" y="1.67" class="f">Devices:</text></symbol><symbol id="22"><text x="4.008" y="1.67" class="f">ID</text><text x="10.02" y="1.67" class="f">Host</text><text x="27.054" y="1.67" class="f">Port</text></symbol><symbol id="23"><text x="4.008" y="1.67" class="f">--</text><text x="10.02" y="1.67" class="f">----</text><text x="27.054" y="1.67" class="f">----</text></symbol><symbol id="24"><text x="4.008" y="1.67" class="f">0</text><text x="10.02" y="1.67" class="f">192.168.2.106</text><text x="27.054" y="1.67" class="f">8888</text></symbol><symbol id="25"><text y="1.67" class="f">(</text><text x="1.002" y="1.67" class="g">seashell</text><text x="9.018" y="1.67" class="f">)&gt;</text><text x="12.024" y="1.67" class="f">devices</text><text x="20.04" y="1.67" class="f">-i</text></symbol><symbol id="26"><text y="1.67" class="f">(</text><text x="1.002" y="1.67" class="g">seashell</text><text x="9.018" y="1.67" class="f">)&gt;</text><text x="12.024" y="1.67" class="f">devices</text><text x="20.04" y="1.67" class="f">-i</text><text x="23.046" y="1.67" class="f">0</text></symbol><symbol id="27"><text y="1.67" class="h">[*]</text><text x="4.008" y="1.67" class="f">Interacting</text><text x="16.032" y="1.67" class="f">with</text><text x="21.042" y="1.67" class="f">device</text><text x="28.056" y="1.67" class="f">0...</text></symbol><symbol id="28"><text y="1.67" class="h">[*]</text><text x="4.008" y="1.67" class="f">Loading</text><text x="12.024" y="1.67" class="f">additional</text><text x="23.046" y="1.67" class="f">bundles...</text></symbol><symbol id="29"><text y="1.67" class="l">[+]</text><text x="4.008" y="1.67" class="f">Interactive</text><text x="16.032" y="1.67" class="f">connection</text><text x="27.054" y="1.67" class="f">spawned!</text></symbol><symbol id="30"><text y="1.67" class="f">pwny:</text><text x="5.01" y="1.67" class="g">/</text><text x="7.014" y="1.67" class="m">root</text><text x="11.022" y="1.67" class="f">#</text></symbol><symbol id="31"><text y="1.67" class="f">pwny:</text><text x="5.01" y="1.67" class="g">/</text><text x="7.014" y="1.67" class="m">root</text><text x="11.022" y="1.67" class="f">#</text><text x="13.026" y="1.67" class="f">sysinfo</text></symbol><symbol id="32"><text y="1.67" class="i">[i]</text><text x="4.008" y="1.67" class="f">Name:</text><text x="13.026" y="1.67" class="f">iOS</text></symbol><symbol id="33"><text y="1.67" class="i">[i]</text><text x="4.008" y="1.67" class="f">Arch:</text><text x="13.026" y="1.67" class="f">arm64</text></symbol><symbol id="34"><text y="1.67" class="i">[i]</text><text x="4.008" y="1.67" class="f">Version:</text><text x="13.026" y="1.67" class="f">20D67</text></symbol><symbol id="35"><text y="1.67" class="i">[i]</text><text x="4.008" y="1.67" class="f">Vendor:</text><text x="13.026" y="1.67" class="f">Apple</text></symbol><symbol id="36"><text y="1.67" class="i">[i]</text><text x="4.008" y="1.67" class="f">UUID:</text><text x="13.026" y="1.67" class="f">7bb450ab-9181-4cb0-a413-306b5f76a503</text></symbol><symbol id="a"><path fill="transparent" d="M0 0h90v30H0z"/></symbol><symbol id="b"><path fill="#6f7683" d="M0 0h1.102v2.171H0z"/></symbol></defs><path class="a" d="M0 0h90v65.13H0z"/><g style="animation-duration:26.406681s;animation-iteration-count:infinite;animation-name:p;animation-timing-function:steps(1,end)"><svg width="8280"><svg><use xlink:href="#a"/><use xlink:href="#b" x="-.004"/></svg><svg x="90"><use xlink:href="#a"/><use xlink:href="#b" x="-.004"/></svg><svg x="180"><use xlink:href="#a"/><use xlink:href="#b" x="11.996"/><use xlink:href="#1"/></svg><svg x="270"><use xlink:href="#a"/><use xlink:href="#b" x="12.996"/><text y="1.67" class="f">(</text><text x="1.002" y="1.67" class="g">seashell</text><text x="9.018" y="1.67" class="f">)&gt;</text><text x="12.024" y="1.67" class="f">l</text></svg><svg x="360"><use xlink:href="#a"/><use xlink:href="#b" x="13.996"/><text y="1.67" class="f">(</text><text x="1.002" y="1.67" class="g">seashell</text><text x="9.018" y="1.67" class="f">)&gt;</text><text x="12.024" y="1.67" class="f">li</text></svg><svg x="450"><use xlink:href="#a"/><use xlink:href="#b" x="14.996"/><text y="1.67" class="f">(</text><text x="1.002" y="1.67" class="g">seashell</text><text x="9.018" y="1.67" class="f">)&gt;</text><text x="12.024" y="1.67" class="f">lis</text></svg><svg x="540"><use xlink:href="#a"/><use xlink:href="#b" x="15.996"/><text y="1.67" class="f">(</text><text x="1.002" y="1.67" class="g">seashell</text><text x="9.018" y="1.67" class="f">)&gt;</text><text x="12.024" y="1.67" class="f">list</text></svg><svg x="630"><use xlink:href="#a"/><use xlink:href="#b" x="16.996"/><text y="1.67" class="f">(</text><text x="1.002" y="1.67" class="g">seashell</text><text x="9.018" y="1.67" class="f">)&gt;</text><text x="12.024" y="1.67" class="f">liste</text></svg><svg x="720"><use xlink:href="#a"/><use xlink:href="#b" x="17.996"/><text y="1.67" class="f">(</text><text x="1.002" y="1.67" class="g">seashell</text><text x="9.018" y="1.67" class="f">)&gt;</text><text x="12.024" y="1.67" class="f">listen</text></svg><svg x="810"><use xlink:href="#a"/><use xlink:href="#b" x="18.996"/><text y="1.67" class="f">(</text><text x="1.002" y="1.67" class="g">seashell</text><text x="9.018" y="1.67" class="f">)&gt;</text><text x="12.024" y="1.67" class="f">listene</text></svg><svg x="900"><use xlink:href="#a"/><use xlink:href="#b" x="19.996"/><use xlink:href="#2"/></svg><svg x="990"><use xlink:href="#a"/><use xlink:href="#b" x="20.996"/><use xlink:href="#2"/></svg><svg x="1080"><use xlink:href="#a"/><use xlink:href="#b" x="21.996"/><text y="1.67" class="f">(</text><text x="1.002" y="1.67" class="g">seashell</text><text x="9.018" y="1.67" class="f">)&gt;</text><text x="12.024" y="1.67" class="f">listener</text><text x="21.042" y="1.67" class="f">o</text></svg><svg x="1170"><use xlink:href="#a"/><use xlink:href="#b" x="22.996"/><use xlink:href="#3"/></svg><svg x="1260"><use xlink:href="#a"/><use xlink:href="#b" x="23.996"/><use xlink:href="#3"/></svg><svg x="1350"><use xlink:href="#a"/><use xlink:href="#b" x="24.996"/><text y="1.67" class="f">(</text><text x="1.002" y="1.67" class="g">seashell</text><text x="9.018" y="1.67" class="f">)&gt;</text><text x="12.024" y="1.67" class="f">listener</text><text x="21.042" y="1.67" class="f">on</text><text x="24.048" y="1.67" class="f">0</text></svg><svg x="1440"><use xlink:href="#a"/><use xlink:href="#b" x="25.996"/><text y="1.67" class="f">(</text><text x="1.002" y="1.67" class="g">seashell</text><text x="9.018" y="1.67" class="f">)&gt;</text><text x="12.024" y="1.67" class="f">listener</text><text x="21.042" y="1.67" class="f">on</text><text x="24.048" y="1.67" class="f">0.</text></svg><svg x="1530"><use xlink:href="#a"/><use xlink:href="#b" x="26.996"/><text y="1.67" class="f">(</text><text x="1.002" y="1.67" class="g">seashell</text><text x="9.018" y="1.67" class="f">)&gt;</text><text x="12.024" y="1.67" class="f">listener</text><text x="21.042" y="1.67" class="f">on</text><text x="24.048" y="1.67" class="f">0.0</text></svg><svg x="1620"><use xlink:href="#a"/><use xlink:href="#b" x="27.996"/><text y="1.67" class="f">(</text><text x="1.002" y="1.67" class="g">seashell</text><text x="9.018" y="1.67" class="f">)&gt;</text><text x="12.024" y="1.67" class="f">listener</text><text x="21.042" y="1.67" class="f">on</text><text x="24.048" y="1.67" class="f">0.0.</text></svg><svg x="1710"><use xlink:href="#a"/><use xlink:href="#b" x="28.996"/><text y="1.67" class="f">(</text><text x="1.002" y="1.67" class="g">seashell</text><text x="9.018" y="1.67" class="f">)&gt;</text><text x="12.024" y="1.67" class="f">listener</text><text x="21.042" y="1.67" class="f">on</text><text x="24.048" y="1.67" class="f">0.0.0</text></svg><svg x="1800"><use xlink:href="#a"/><use xlink:href="#b" x="29.996"/><text y="1.67" class="f">(</text><text x="1.002" y="1.67" class="g">seashell</text><text x="9.018" y="1.67" class="f">)&gt;</text><text x="12.024" y="1.67" class="f">listener</text><text x="21.042" y="1.67" class="f">on</text><text x="24.048" y="1.67" class="f">0.0.0.</text></svg><svg x="1890"><use xlink:href="#a"/><use xlink:href="#b" x="30.996"/><use xlink:href="#4"/></svg><svg x="1980"><use xlink:href="#a"/><use xlink:href="#b" x="31.996"/><use xlink:href="#4"/></svg><svg x="2070"><use xlink:href="#a"/><use xlink:href="#b" x="32.996"/><text y="1.67" class="f">(</text><text x="1.002" y="1.67" class="g">seashell</text><text x="9.018" y="1.67" class="f">)&gt;</text><text x="12.024" y="1.67" class="f">listener</text><text x="21.042" y="1.67" class="f">on</text><text x="24.048" y="1.67" class="f">0.0.0.0</text><text x="32.064" y="1.67" class="f">8</text></svg><svg x="2160"><use xlink:href="#a"/><use xlink:href="#b" x="33.996"/><text y="1.67" class="f">(</text><text x="1.002" y="1.67" class="g">seashell</text><text x="9.018" y="1.67" class="f">)&gt;</text><text x="12.024" y="1.67" class="f">listener</text><text x="21.042" y="1.67" class="f">on</text><text x="24.048" y="1.67" class="f">0.0.0.0</text><text x="32.064" y="1.67" class="f">88</text></svg><svg x="2250"><use xlink:href="#a"/><use xlink:href="#b" x="34.996"/><text y="1.67" class="f">(</text><text x="1.002" y="1.67" class="g">seashell</text><text x="9.018" y="1.67" class="f">)&gt;</text><text x="12.024" y="1.67" class="f">listener</text><text x="21.042" y="1.67" class="f">on</text><text x="24.048" y="1.67" class="f">0.0.0.0</text><text x="32.064" y="1.67" class="f">888</text></svg><svg x="2340"><use xlink:href="#a"/><use xlink:href="#b" x="35.996"/><use xlink:href="#5"/></svg><svg x="2430"><use xlink:href="#a"/><use xlink:href="#b" x="-.004" y="2.146"/><use xlink:href="#5"/></svg><svg x="2520"><use xlink:href="#a"/><use xlink:href="#b" x="-.004" y="4.317"/><use xlink:href="#5"/><use xlink:href="#6" y="2.171"/></svg><svg x="2610"><use xlink:href="#a"/><use xlink:href="#b" x="-.004" y="6.488"/><use xlink:href="#5"/><use xlink:href="#6" y="2.171"/><use xlink:href="#7" y="4.342"/></svg><svg x="2700"><use xlink:href="#a"/><use xlink:href="#b" x="11.996" y="6.488"/><use xlink:href="#5"/><use xlink:href="#6" y="2.171"/><use xlink:href="#7" y="4.342"/><use xlink:href="#1" y="6.513"/></svg><svg x="2790"><use xlink:href="#a"/><use xlink:href="#b" x="12.996" y="6.488"/><use xlink:href="#5"/><use xlink:href="#6" y="2.171"/><use xlink:href="#7" y="4.342"/><use xlink:href="#8" y="6.513"/></svg><svg x="2880"><use xlink:href="#a"/><use xlink:href="#b" x="13.996" y="6.488"/><use xlink:href="#5"/><use xlink:href="#6" y="2.171"/><use xlink:href="#7" y="4.342"/><use xlink:href="#9" y="6.513"/></svg><svg x="2970"><use xlink:href="#a"/><use xlink:href="#b" x="14.996" y="6.488"/><use xlink:href="#5"/><use xlink:href="#6" y="2.171"/><use xlink:href="#7" y="4.342"/><use xlink:href="#10" y="6.513"/></svg><svg x="3060"><use xlink:href="#a"/><use xlink:href="#b" x="15.996" y="6.488"/><use xlink:href="#5"/><use xlink:href="#6" y="2.171"/><use xlink:href="#7" y="4.342"/><text y="8.183" class="f">(</text><text x="1.002" y="8.183" class="g">seashell</text><text x="9.018" y="8.183" class="f">)&gt;</text><text x="12.024" y="8.183" class="f">devc</text></svg><svg x="3150"><use xlink:href="#a"/><use xlink:href="#b" x="14.996" y="6.488"/><use xlink:href="#5"/><use xlink:href="#6" y="2.171"/><use xlink:href="#7" y="4.342"/><use xlink:href="#10" y="6.513"/></svg><svg x="3240"><use xlink:href="#a"/><use xlink:href="#b" x="15.996" y="6.488"/><use xlink:href="#5"/><use xlink:href="#6" y="2.171"/><use xlink:href="#7" y="4.342"/><use xlink:href="#11" y="6.513"/></svg><svg x="3330"><use xlink:href="#a"/><use xlink:href="#b" x="16.996" y="6.488"/><use xlink:href="#5"/><use xlink:href="#6" y="2.171"/><use xlink:href="#7" y="4.342"/><use xlink:href="#12" y="6.513"/></svg><svg x="3420"><use xlink:href="#a"/><use xlink:href="#b" x="17.996" y="6.488"/><use xlink:href="#5"/><use xlink:href="#6" y="2.171"/><use xlink:href="#7" y="4.342"/><use xlink:href="#13" y="6.513"/></svg><svg x="3510"><use xlink:href="#a"/><use xlink:href="#b" x="18.996" y="6.488"/><use xlink:href="#5"/><use xlink:href="#6" y="2.171"/><use xlink:href="#7" y="4.342"/><use xlink:href="#14" y="6.513"/></svg><svg x="3600"><use xlink:href="#a"/><use xlink:href="#b" x="19.996" y="6.488"/><use xlink:href="#5"/><use xlink:href="#6" y="2.171"/><use xlink:href="#7" y="4.342"/><use xlink:href="#14" y="6.513"/></svg><svg x="3690"><use xlink:href="#a"/><use xlink:href="#b" x="20.996" y="6.488"/><use xlink:href="#5"/><use xlink:href="#6" y="2.171"/><use xlink:href="#7" y="4.342"/><use xlink:href="#15" y="6.513"/></svg><svg x="3780"><use xlink:href="#a"/><use xlink:href="#b" x="21.996" y="6.488"/><use xlink:href="#5"/><use xlink:href="#6" y="2.171"/><use xlink:href="#7" y="4.342"/><use xlink:href="#16" y="6.513"/></svg><svg x="3870"><use xlink:href="#a"/><use xlink:href="#b" x="-.004" y="8.659"/><use xlink:href="#5"/><use xlink:href="#6" y="2.171"/><use xlink:href="#7" y="4.342"/><use xlink:href="#16" y="6.513"/></svg><svg x="3960"><use xlink:href="#a"/><use xlink:href="#b" x="-.004" y="10.83"/><use xlink:href="#5"/><use xlink:href="#6" y="2.171"/><use xlink:href="#7" y="4.342"/><use xlink:href="#16" y="6.513"/><use xlink:href="#17" y="8.684"/></svg><svg x="4050"><use xlink:href="#a"/><use xlink:href="#b" x="11.996" y="10.83"/><use xlink:href="#5"/><use xlink:href="#6" y="2.171"/><use xlink:href="#7" y="4.342"/><use xlink:href="#16" y="6.513"/><use xlink:href="#17" y="8.684"/><use xlink:href="#1" y="10.855"/></svg><svg x="4140"><use xlink:href="#a"/><use xlink:href="#b" x="-.004" y="13.001"/><use xlink:href="#5"/><use xlink:href="#6" y="2.171"/><use xlink:href="#7" y="4.342"/><use xlink:href="#16" y="6.513"/><use xlink:href="#17" y="8.684"/><use xlink:href="#18" y="10.855"/></svg><svg x="4230"><use xlink:href="#a"/><use xlink:href="#b" x="11.996" y="17.343"/><use xlink:href="#5"/><use xlink:href="#6" y="2.171"/><use xlink:href="#7" y="4.342"/><use xlink:href="#16" y="6.513"/><use xlink:href="#17" y="8.684"/><use xlink:href="#18" y="10.855"/><use xlink:href="#19" y="13.026"/><use xlink:href="#20" y="15.197"/><use xlink:href="#1" y="17.368"/></svg><svg x="4320"><use xlink:href="#a"/><use xlink:href="#b" x="12.996" y="17.343"/><use xlink:href="#5"/><use xlink:href="#6" y="2.171"/><use xlink:href="#7" y="4.342"/><use xlink:href="#16" y="6.513"/><use xlink:href="#17" y="8.684"/><use xlink:href="#18" y="10.855"/><use xlink:href="#19" y="13.026"/><use xlink:href="#20" y="15.197"/><use xlink:href="#8" y="17.368"/></svg><svg x="4410"><use xlink:href="#a"/><use xlink:href="#b" x="13.996" y="17.343"/><use xlink:href="#5"/><use xlink:href="#6" y="2.171"/><use xlink:href="#7" y="4.342"/><use xlink:href="#16" y="6.513"/><use xlink:href="#17" y="8.684"/><use xlink:href="#18" y="10.855"/><use xlink:href="#19" y="13.026"/><use xlink:href="#20" y="15.197"/><use xlink:href="#9" y="17.368"/></svg><svg x="4500"><use xlink:href="#a"/><use xlink:href="#b" x="14.996" y="17.343"/><use xlink:href="#5"/><use xlink:href="#6" y="2.171"/><use xlink:href="#7" y="4.342"/><use xlink:href="#16" y="6.513"/><use xlink:href="#17" y="8.684"/><use xlink:href="#18" y="10.855"/><use xlink:href="#19" y="13.026"/><use xlink:href="#20" y="15.197"/><use xlink:href="#10" y="17.368"/></svg><svg x="4590"><use xlink:href="#a"/><use xlink:href="#b" x="15.996" y="17.343"/><use xlink:href="#5"/><use xlink:href="#6" y="2.171"/><use xlink:href="#7" y="4.342"/><use xlink:href="#16" y="6.513"/><use xlink:href="#17" y="8.684"/><use xlink:href="#18" y="10.855"/><use xlink:href="#19" y="13.026"/><use xlink:href="#20" y="15.197"/><use xlink:href="#11" y="17.368"/></svg><svg x="4680"><use xlink:href="#a"/><use xlink:href="#b" x="16.996" y="17.343"/><use xlink:href="#5"/><use xlink:href="#6" y="2.171"/><use xlink:href="#7" y="4.342"/><use xlink:href="#16" y="6.513"/><use xlink:href="#17" y="8.684"/><use xlink:href="#18" y="10.855"/><use xlink:href="#19" y="13.026"/><use xlink:href="#20" y="15.197"/><use xlink:href="#12" y="17.368"/></svg><svg x="4770"><use xlink:href="#a"/><use xlink:href="#b" x="17.996" y="17.343"/><use xlink:href="#5"/><use xlink:href="#6" y="2.171"/><use xlink:href="#7" y="4.342"/><use xlink:href="#16" y="6.513"/><use xlink:href="#17" y="8.684"/><use xlink:href="#18" y="10.855"/><use xlink:href="#19" y="13.026"/><use xlink:href="#20" y="15.197"/><use xlink:href="#13" y="17.368"/></svg><svg x="4860"><use xlink:href="#a"/><use xlink:href="#b" x="18.996" y="17.343"/><use xlink:href="#5"/><use xlink:href="#6" y="2.171"/><use xlink:href="#7" y="4.342"/><use xlink:href="#16" y="6.513"/><use xlink:href="#17" y="8.684"/><use xlink:href="#18" y="10.855"/><use xlink:href="#19" y="13.026"/><use xlink:href="#20" y="15.197"/><use xlink:href="#14" y="17.368"/></svg><svg x="4950"><use xlink:href="#a"/><use xlink:href="#b" x="19.996" y="17.343"/><use xlink:href="#5"/><use xlink:href="#6" y="2.171"/><use xlink:href="#7" y="4.342"/><use xlink:href="#16" y="6.513"/><use xlink:href="#17" y="8.684"/><use xlink:href="#18" y="10.855"/><use xlink:href="#19" y="13.026"/><use xlink:href="#20" y="15.197"/><use xlink:href="#14" y="17.368"/></svg><svg x="5040"><use xlink:href="#a"/><use xlink:href="#b" x="20.996" y="17.343"/><use xlink:href="#5"/><use xlink:href="#6" y="2.171"/><use xlink:href="#7" y="4.342"/><use xlink:href="#16" y="6.513"/><use xlink:href="#17" y="8.684"/><use xlink:href="#18" y="10.855"/><use xlink:href="#19" y="13.026"/><use xlink:href="#20" y="15.197"/><use xlink:href="#15" y="17.368"/></svg><svg x="5130"><use xlink:href="#a"/><use xlink:href="#b" x="21.996" y="17.343"/><use xlink:href="#5"/><use xlink:href="#6" y="2.171"/><use xlink:href="#7" y="4.342"/><use xlink:href="#16" y="6.513"/><use xlink:href="#17" y="8.684"/><use xlink:href="#18" y="10.855"/><use xlink:href="#19" y="13.026"/><use xlink:href="#20" y="15.197"/><use xlink:href="#16" y="17.368"/></svg><svg x="5220"><use xlink:href="#a"/><use xlink:href="#b" x="-.004" y="19.514"/><use xlink:href="#5"/><use xlink:href="#6" y="2.171"/><use xlink:href="#7" y="4.342"/><use xlink:href="#16" y="6.513"/><use xlink:href="#17" y="8.684"/><use xlink:href="#18" y="10.855"/><use xlink:href="#19" y="13.026"/><use xlink:href="#20" y="15.197"/><use xlink:href="#16" y="17.368"/></svg><svg x="5310"><use xlink:href="#a"/><use xlink:href="#b" x="-.004" y="23.856"/><use xlink:href="#5"/><use xlink:href="#6" y="2.171"/><use xlink:href="#7" y="4.342"/><use xlink:href="#16" y="6.513"/><use xlink:href="#17" y="8.684"/><use xlink:href="#18" y="10.855"/><use xlink:href="#19" y="13.026"/><use xlink:href="#20" y="15.197"/><use xlink:href="#16" y="17.368"/><use xlink:href="#21" y="21.71"/></svg><svg x="5400"><use xlink:href="#a"/><use xlink:href="#b" x="-.004" y="30.369"/><use xlink:href="#5"/><use xlink:href="#6" y="2.171"/><use xlink:href="#7" y="4.342"/><use xlink:href="#16" y="6.513"/><use xlink:href="#17" y="8.684"/><use xlink:href="#18" y="10.855"/><use xlink:href="#19" y="13.026"/><use xlink:href="#20" y="15.197"/><use xlink:href="#16" y="17.368"/><use xlink:href="#21" y="21.71"/><use xlink:href="#22" y="26.052"/><use xlink:href="#23" y="28.223"/></svg><svg x="5490"><use xlink:href="#a"/><use xlink:href="#b" x="-.004" y="32.54"/><use xlink:href="#5"/><use xlink:href="#6" y="2.171"/><use xlink:href="#7" y="4.342"/><use xlink:href="#16" y="6.513"/><use xlink:href="#17" y="8.684"/><use xlink:href="#18" y="10.855"/><use xlink:href="#19" y="13.026"/><use xlink:href="#20" y="15.197"/><use xlink:href="#16" y="17.368"/><use xlink:href="#21" y="21.71"/><use xlink:href="#22" y="26.052"/><use xlink:href="#23" y="28.223"/><use xlink:href="#24" y="30.394"/></svg><svg x="5580"><use xlink:href="#a"/><use xlink:href="#b" x="-.004" y="34.711"/><use xlink:href="#5"/><use xlink:href="#6" y="2.171"/><use xlink:href="#7" y="4.342"/><use xlink:href="#16" y="6.513"/><use xlink:href="#17" y="8.684"/><use xlink:href="#18" y="10.855"/><use xlink:href="#19" y="13.026"/><use xlink:href="#20" y="15.197"/><use xlink:href="#16" y="17.368"/><use xlink:href="#21" y="21.71"/><use xlink:href="#22" y="26.052"/><use xlink:href="#23" y="28.223"/><use xlink:href="#24" y="30.394"/></svg><svg x="5670"><use xlink:href="#a"/><use xlink:href="#b" x="11.996" y="34.711"/><use xlink:href="#5"/><use xlink:href="#6" y="2.171"/><use xlink:href="#7" y="4.342"/><use xlink:href="#16" y="6.513"/><use xlink:href="#17" y="8.684"/><use xlink:href="#18" y="10.855"/><use xlink:href="#19" y="13.026"/><use xlink:href="#20" y="15.197"/><use xlink:href="#16" y="17.368"/><use xlink:href="#21" y="21.71"/><use xlink:href="#22" y="26.052"/><use xlink:href="#23" y="28.223"/><use xlink:href="#24" y="30.394"/><use xlink:href="#1" y="34.736"/></svg><svg x="5760"><use xlink:href="#a"/><use xlink:href="#b" x="12.996" y="34.711"/><use xlink:href="#5"/><use xlink:href="#6" y="2.171"/><use xlink:href="#7" y="4.342"/><use xlink:href="#16" y="6.513"/><use xlink:href="#17" y="8.684"/><use xlink:href="#18" y="10.855"/><use xlink:href="#19" y="13.026"/><use xlink:href="#20" y="15.197"/><use xlink:href="#16" y="17.368"/><use xlink:href="#21" y="21.71"/><use xlink:href="#22" y="26.052"/><use xlink:href="#23" y="28.223"/><use xlink:href="#24" y="30.394"/><use xlink:href="#8" y="34.736"/></svg><svg x="5850"><use xlink:href="#a"/><use xlink:href="#b" x="13.996" y="34.711"/><use xlink:href="#5"/><use xlink:href="#6" y="2.171"/><use xlink:href="#7" y="4.342"/><use xlink:href="#16" y="6.513"/><use xlink:href="#17" y="8.684"/><use xlink:href="#18" y="10.855"/><use xlink:href="#19" y="13.026"/><use xlink:href="#20" y="15.197"/><use xlink:href="#16" y="17.368"/><use xlink:href="#21" y="21.71"/><use xlink:href="#22" y="26.052"/><use xlink:href="#23" y="28.223"/><use xlink:href="#24" y="30.394"/><use xlink:href="#9" y="34.736"/></svg><svg x="5940"><use xlink:href="#a"/><use xlink:href="#b" x="14.996" y="34.711"/><use xlink:href="#5"/><use xlink:href="#6" y="2.171"/><use xlink:href="#7" y="4.342"/><use xlink:href="#16" y="6.513"/><use xlink:href="#17" y="8.684"/><use xlink:href="#18" y="10.855"/><use xlink:href="#19" y="13.026"/><use xlink:href="#20" y="15.197"/><use xlink:href="#16" y="17.368"/><use xlink:href="#21" y="21.71"/><use xlink:href="#22" y="26.052"/><use xlink:href="#23" y="28.223"/><use xlink:href="#24" y="30.394"/><use xlink:href="#10" y="34.736"/></svg><svg x="6030"><use xlink:href="#a"/><use xlink:href="#b" x="15.996" y="34.711"/><use xlink:href="#5"/><use xlink:href="#6" y="2.171"/><use xlink:href="#7" y="4.342"/><use xlink:href="#16" y="6.513"/><use xlink:href="#17" y="8.684"/><use xlink:href="#18" y="10.855"/><use xlink:href="#19" y="13.026"/><use xlink:href="#20" y="15.197"/><use xlink:href="#16" y="17.368"/><use xlink:href="#21" y="21.71"/><use xlink:href="#22" y="26.052"/><use xlink:href="#23" y="28.223"/><use xlink:href="#24" y="30.394"/><use xlink:href="#11" y="34.736"/></svg><svg x="6120"><use xlink:href="#a"/><use xlink:href="#b" x="16.996" y="34.711"/><use xlink:href="#5"/><use xlink:href="#6" y="2.171"/><use xlink:href="#7" y="4.342"/><use xlink:href="#16" y="6.513"/><use xlink:href="#17" y="8.684"/><use xlink:href="#18" y="10.855"/><use xlink:href="#19" y="13.026"/><use xlink:href="#20" y="15.197"/><use xlink:href="#16" y="17.368"/><use xlink:href="#21" y="21.71"/><use xlink:href="#22" y="26.052"/><use xlink:href="#23" y="28.223"/><use xlink:href="#24" y="30.394"/><use xlink:href="#12" y="34.736"/></svg><svg x="6210"><use xlink:href="#a"/><use xlink:href="#b" x="17.996" y="34.711"/><use xlink:href="#5"/><use xlink:href="#6" y="2.171"/><use xlink:href="#7" y="4.342"/><use xlink:href="#16" y="6.513"/><use xlink:href="#17" y="8.684"/><use xlink:href="#18" y="10.855"/><use xlink:href="#19" y="13.026"/><use xlink:href="#20" y="15.197"/><use xlink:href="#16" y="17.368"/><use xlink:href="#21" y="21.71"/><use xlink:href="#22" y="26.052"/><use xlink:href="#23" y="28.223"/><use xlink:href="#24" y="30.394"/><use xlink:href="#13" y="34.736"/></svg><svg x="6300"><use xlink:href="#a"/><use xlink:href="#b" x="18.996" y="34.711"/><use xlink:href="#5"/><use xlink:href="#6" y="2.171"/><use xlink:href="#7" y="4.342"/><use xlink:href="#16" y="6.513"/><use xlink:href="#17" y="8.684"/><use xlink:href="#18" y="10.855"/><use xlink:href="#19" y="13.026"/><use xlink:href="#20" y="15.197"/><use xlink:href="#16" y="17.368"/><use xlink:href="#21" y="21.71"/><use xlink:href="#22" y="26.052"/><use xlink:href="#23" y="28.223"/><use xlink:href="#24" y="30.394"/><use xlink:href="#14" y="34.736"/></svg><svg x="6390"><use xlink:href="#a"/><use xlink:href="#b" x="19.996" y="34.711"/><use xlink:href="#5"/><use xlink:href="#6" y="2.171"/><use xlink:href="#7" y="4.342"/><use xlink:href="#16" y="6.513"/><use xlink:href="#17" y="8.684"/><use xlink:href="#18" y="10.855"/><use xlink:href="#19" y="13.026"/><use xlink:href="#20" y="15.197"/><use xlink:href="#16" y="17.368"/><use xlink:href="#21" y="21.71"/><use xlink:href="#22" y="26.052"/><use xlink:href="#23" y="28.223"/><use xlink:href="#24" y="30.394"/><use xlink:href="#14" y="34.736"/></svg><svg x="6480"><use xlink:href="#a"/><use xlink:href="#b" x="20.996" y="34.711"/><use xlink:href="#5"/><use xlink:href="#6" y="2.171"/><use xlink:href="#7" y="4.342"/><use xlink:href="#16" y="6.513"/><use xlink:href="#17" y="8.684"/><use xlink:href="#18" y="10.855"/><use xlink:href="#19" y="13.026"/><use xlink:href="#20" y="15.197"/><use xlink:href="#16" y="17.368"/><use xlink:href="#21" y="21.71"/><use xlink:href="#22" y="26.052"/><use xlink:href="#23" y="28.223"/><use xlink:href="#24" y="30.394"/><use xlink:href="#15" y="34.736"/></svg><svg x="6570"><use xlink:href="#a"/><use xlink:href="#b" x="21.996" y="34.711"/><use xlink:href="#5"/><use xlink:href="#6" y="2.171"/><use xlink:href="#7" y="4.342"/><use xlink:href="#16" y="6.513"/><use xlink:href="#17" y="8.684"/><use xlink:href="#18" y="10.855"/><use xlink:href="#19" y="13.026"/><use xlink:href="#20" y="15.197"/><use xlink:href="#16" y="17.368"/><use xlink:href="#21" y="21.71"/><use xlink:href="#22" y="26.052"/><use xlink:href="#23" y="28.223"/><use xlink:href="#24" y="30.394"/><use xlink:href="#25" y="34.736"/></svg><svg x="6660"><use xlink:href="#a"/><use xlink:href="#b" x="22.996" y="34.711"/><use xlink:href="#5"/><use xlink:href="#6" y="2.171"/><use xlink:href="#7" y="4.342"/><use xlink:href="#16" y="6.513"/><use xlink:href="#17" y="8.684"/><use xlink:href="#18" y="10.855"/><use xlink:href="#19" y="13.026"/><use xlink:href="#20" y="15.197"/><use xlink:href="#16" y="17.368"/><use xlink:href="#21" y="21.71"/><use xlink:href="#22" y="26.052"/><use xlink:href="#23" y="28.223"/><use xlink:href="#24" y="30.394"/><use xlink:href="#25" y="34.736"/></svg><svg x="6750"><use xlink:href="#a"/><use xlink:href="#b" x="23.996" y="34.711"/><use xlink:href="#5"/><use xlink:href="#6" y="2.171"/><use xlink:href="#7" y="4.342"/><use xlink:href="#16" y="6.513"/><use xlink:href="#17" y="8.684"/><use xlink:href="#18" y="10.855"/><use xlink:href="#19" y="13.026"/><use xlink:href="#20" y="15.197"/><use xlink:href="#16" y="17.368"/><use xlink:href="#21" y="21.71"/><use xlink:href="#22" y="26.052"/><use xlink:href="#23" y="28.223"/><use xlink:href="#24" y="30.394"/><use xlink:href="#26" y="34.736"/></svg><svg x="6840"><use xlink:href="#a"/><use xlink:href="#b" x="-.004" y="36.882"/><use xlink:href="#5"/><use xlink:href="#6" y="2.171"/><use xlink:href="#7" y="4.342"/><use xlink:href="#16" y="6.513"/><use xlink:href="#17" y="8.684"/><use xlink:href="#18" y="10.855"/><use xlink:href="#19" y="13.026"/><use xlink:href="#20" y="15.197"/><use xlink:href="#16" y="17.368"/><use xlink:href="#21" y="21.71"/><use xlink:href="#22" y="26.052"/><use xlink:href="#23" y="28.223"/><use xlink:href="#24" y="30.394"/><use xlink:href="#26" y="34.736"/></svg><svg x="6930"><use xlink:href="#a"/><use xlink:href="#b" x="-.004" y="41.224"/><use xlink:href="#5"/><use xlink:href="#6" y="2.171"/><use xlink:href="#7" y="4.342"/><use xlink:href="#16" y="6.513"/><use xlink:href="#17" y="8.684"/><use xlink:href="#18" y="10.855"/><use xlink:href="#19" y="13.026"/><use xlink:href="#20" y="15.197"/><use xlink:href="#16" y="17.368"/><use xlink:href="#21" y="21.71"/><use xlink:href="#22" y="26.052"/><use xlink:href="#23" y="28.223"/><use xlink:href="#24" y="30.394"/><use xlink:href="#26" y="34.736"/><use xlink:href="#27" y="36.907"/><use xlink:href="#28" y="39.078"/></svg><svg x="7020"><use xlink:href="#a"/><use xlink:href="#b" x="-.004" y="45.566"/><use xlink:href="#5"/><use xlink:href="#6" y="2.171"/><use xlink:href="#7" y="4.342"/><use xlink:href="#16" y="6.513"/><use xlink:href="#17" y="8.684"/><use xlink:href="#18" y="10.855"/><use xlink:href="#19" y="13.026"/><use xlink:href="#20" y="15.197"/><use xlink:href="#16" y="17.368"/><use xlink:href="#21" y="21.71"/><use xlink:href="#22" y="26.052"/><use xlink:href="#23" y="28.223"/><use xlink:href="#24" y="30.394"/><use xlink:href="#26" y="34.736"/><use xlink:href="#27" y="36.907"/><use xlink:href="#28" y="39.078"/><use xlink:href="#29" y="41.249"/></svg><svg x="7110"><use xlink:href="#a"/><use xlink:href="#b" x="12.996" y="45.566"/><use xlink:href="#5"/><use xlink:href="#6" y="2.171"/><use xlink:href="#7" y="4.342"/><use xlink:href="#16" y="6.513"/><use xlink:href="#17" y="8.684"/><use xlink:href="#18" y="10.855"/><use xlink:href="#19" y="13.026"/><use xlink:href="#20" y="15.197"/><use xlink:href="#16" y="17.368"/><use xlink:href="#21" y="21.71"/><use xlink:href="#22" y="26.052"/><use xlink:href="#23" y="28.223"/><use xlink:href="#24" y="30.394"/><use xlink:href="#26" y="34.736"/><use xlink:href="#27" y="36.907"/><use xlink:href="#28" y="39.078"/><use xlink:href="#29" y="41.249"/><use xlink:href="#30" y="45.591"/></svg><svg x="7200"><use xlink:href="#a"/><use xlink:href="#b" x="13.996" y="45.566"/><use xlink:href="#5"/><use xlink:href="#6" y="2.171"/><use xlink:href="#7" y="4.342"/><use xlink:href="#16" y="6.513"/><use xlink:href="#17" y="8.684"/><use xlink:href="#18" y="10.855"/><use xlink:href="#19" y="13.026"/><use xlink:href="#20" y="15.197"/><use xlink:href="#16" y="17.368"/><use xlink:href="#21" y="21.71"/><use xlink:href="#22" y="26.052"/><use xlink:href="#23" y="28.223"/><use xlink:href="#24" y="30.394"/><use xlink:href="#26" y="34.736"/><use xlink:href="#27" y="36.907"/><use xlink:href="#28" y="39.078"/><use xlink:href="#29" y="41.249"/><text y="47.261" class="f">pwny:</text><text x="5.01" y="47.261" class="g">/</text><text x="7.014" y="47.261" class="m">root</text><text x="11.022" y="47.261" class="f">#</text><text x="13.026" y="47.261" class="f">s</text></svg><svg x="7290"><use xlink:href="#a"/><use xlink:href="#b" x="14.996" y="45.566"/><use xlink:href="#5"/><use xlink:href="#6" y="2.171"/><use xlink:href="#7" y="4.342"/><use xlink:href="#16" y="6.513"/><use xlink:href="#17" y="8.684"/><use xlink:href="#18" y="10.855"/><use xlink:href="#19" y="13.026"/><use xlink:href="#20" y="15.197"/><use xlink:href="#16" y="17.368"/><use xlink:href="#21" y="21.71"/><use xlink:href="#22" y="26.052"/><use xlink:href="#23" y="28.223"/><use xlink:href="#24" y="30.394"/><use xlink:href="#26" y="34.736"/><use xlink:href="#27" y="36.907"/><use xlink:href="#28" y="39.078"/><use xlink:href="#29" y="41.249"/><text y="47.261" class="f">pwny:</text><text x="5.01" y="47.261" class="g">/</text><text x="7.014" y="47.261" class="m">root</text><text x="11.022" y="47.261" class="f">#</text><text x="13.026" y="47.261" class="f">sy</text></svg><svg x="7380"><use xlink:href="#a"/><use xlink:href="#b" x="15.996" y="45.566"/><use xlink:href="#5"/><use xlink:href="#6" y="2.171"/><use xlink:href="#7" y="4.342"/><use xlink:href="#16" y="6.513"/><use xlink:href="#17" y="8.684"/><use xlink:href="#18" y="10.855"/><use xlink:href="#19" y="13.026"/><use xlink:href="#20" y="15.197"/><use xlink:href="#16" y="17.368"/><use xlink:href="#21" y="21.71"/><use xlink:href="#22" y="26.052"/><use xlink:href="#23" y="28.223"/><use xlink:href="#24" y="30.394"/><use xlink:href="#26" y="34.736"/><use xlink:href="#27" y="36.907"/><use xlink:href="#28" y="39.078"/><use xlink:href="#29" y="41.249"/><text y="47.261" class="f">pwny:</text><text x="5.01" y="47.261" class="g">/</text><text x="7.014" y="47.261" class="m">root</text><text x="11.022" y="47.261" class="f">#</text><text x="13.026" y="47.261" class="f">sys</text></svg><svg x="7470"><use xlink:href="#a"/><use xlink:href="#b" x="16.996" y="45.566"/><use xlink:href="#5"/><use xlink:href="#6" y="2.171"/><use xlink:href="#7" y="4.342"/><use xlink:href="#16" y="6.513"/><use xlink:href="#17" y="8.684"/><use xlink:href="#18" y="10.855"/><use xlink:href="#19" y="13.026"/><use xlink:href="#20" y="15.197"/><use xlink:href="#16" y="17.368"/><use xlink:href="#21" y="21.71"/><use xlink:href="#22" y="26.052"/><use xlink:href="#23" y="28.223"/><use xlink:href="#24" y="30.394"/><use xlink:href="#26" y="34.736"/><use xlink:href="#27" y="36.907"/><use xlink:href="#28" y="39.078"/><use xlink:href="#29" y="41.249"/><text y="47.261" class="f">pwny:</text><text x="5.01" y="47.261" class="g">/</text><text x="7.014" y="47.261" class="m">root</text><text x="11.022" y="47.261" class="f">#</text><text x="13.026" y="47.261" class="f">sysi</text></svg><svg x="7560"><use xlink:href="#a"/><use xlink:href="#b" x="17.996" y="45.566"/><use xlink:href="#5"/><use xlink:href="#6" y="2.171"/><use xlink:href="#7" y="4.342"/><use xlink:href="#16" y="6.513"/><use xlink:href="#17" y="8.684"/><use xlink:href="#18" y="10.855"/><use xlink:href="#19" y="13.026"/><use xlink:href="#20" y="15.197"/><use xlink:href="#16" y="17.368"/><use xlink:href="#21" y="21.71"/><use xlink:href="#22" y="26.052"/><use xlink:href="#23" y="28.223"/><use xlink:href="#24" y="30.394"/><use xlink:href="#26" y="34.736"/><use xlink:href="#27" y="36.907"/><use xlink:href="#28" y="39.078"/><use xlink:href="#29" y="41.249"/><text y="47.261" class="f">pwny:</text><text x="5.01" y="47.261" class="g">/</text><text x="7.014" y="47.261" class="m">root</text><text x="11.022" y="47.261" class="f">#</text><text x="13.026" y="47.261" class="f">sysin</text></svg><svg x="7650"><use xlink:href="#a"/><use xlink:href="#b" x="18.996" y="45.566"/><use xlink:href="#5"/><use xlink:href="#6" y="2.171"/><use xlink:href="#7" y="4.342"/><use xlink:href="#16" y="6.513"/><use xlink:href="#17" y="8.684"/><use xlink:href="#18" y="10.855"/><use xlink:href="#19" y="13.026"/><use xlink:href="#20" y="15.197"/><use xlink:href="#16" y="17.368"/><use xlink:href="#21" y="21.71"/><use xlink:href="#22" y="26.052"/><use xlink:href="#23" y="28.223"/><use xlink:href="#24" y="30.394"/><use xlink:href="#26" y="34.736"/><use xlink:href="#27" y="36.907"/><use xlink:href="#28" y="39.078"/><use xlink:href="#29" y="41.249"/><text y="47.261" class="f">pwny:</text><text x="5.01" y="47.261" class="g">/</text><text x="7.014" y="47.261" class="m">root</text><text x="11.022" y="47.261" class="f">#</text><text x="13.026" y="47.261" class="f">sysinf</text></svg><svg x="7740"><use xlink:href="#a"/><use xlink:href="#b" x="19.996" y="45.566"/><use xlink:href="#5"/><use xlink:href="#6" y="2.171"/><use xlink:href="#7" y="4.342"/><use xlink:href="#16" y="6.513"/><use xlink:href="#17" y="8.684"/><use xlink:href="#18" y="10.855"/><use xlink:href="#19" y="13.026"/><use xlink:href="#20" y="15.197"/><use xlink:href="#16" y="17.368"/><use xlink:href="#21" y="21.71"/><use xlink:href="#22" y="26.052"/><use xlink:href="#23" y="28.223"/><use xlink:href="#24" y="30.394"/><use xlink:href="#26" y="34.736"/><use xlink:href="#27" y="36.907"/><use xlink:href="#28" y="39.078"/><use xlink:href="#29" y="41.249"/><use xlink:href="#31" y="45.591"/></svg><svg x="7830"><use xlink:href="#a"/><use xlink:href="#b" x="-.004" y="47.737"/><use xlink:href="#5"/><use xlink:href="#6" y="2.171"/><use xlink:href="#7" y="4.342"/><use xlink:href="#16" y="6.513"/><use xlink:href="#17" y="8.684"/><use xlink:href="#18" y="10.855"/><use xlink:href="#19" y="13.026"/><use xlink:href="#20" y="15.197"/><use xlink:href="#16" y="17.368"/><use xlink:href="#21" y="21.71"/><use xlink:href="#22" y="26.052"/><use xlink:href="#23" y="28.223"/><use xlink:href="#24" y="30.394"/><use xlink:href="#26" y="34.736"/><use xlink:href="#27" y="36.907"/><use xlink:href="#28" y="39.078"/><use xlink:href="#29" y="41.249"/><use xlink:href="#31" y="45.591"/></svg><svg x="7920"><use xlink:href="#a"/><use xlink:href="#b" x="-.004" y="52.079"/><use xlink:href="#5"/><use xlink:href="#6" y="2.171"/><use xlink:href="#7" y="4.342"/><use xlink:href="#16" y="6.513"/><use xlink:href="#17" y="8.684"/><use xlink:href="#18" y="10.855"/><use xlink:href="#19" y="13.026"/><use xlink:href="#20" y="15.197"/><use xlink:href="#16" y="17.368"/><use xlink:href="#21" y="21.71"/><use xlink:href="#22" y="26.052"/><use xlink:href="#23" y="28.223"/><use xlink:href="#24" y="30.394"/><use xlink:href="#26" y="34.736"/><use xlink:href="#27" y="36.907"/><use xlink:href="#28" y="39.078"/><use xlink:href="#29" y="41.249"/><use xlink:href="#31" y="45.591"/><use xlink:href="#32" y="47.762"/><use xlink:href="#33" y="49.933"/></svg><svg x="8010"><use xlink:href="#a"/><use xlink:href="#b" x="-.004" y="58.592"/><use xlink:href="#5"/><use xlink:href="#6" y="2.171"/><use xlink:href="#7" y="4.342"/><use xlink:href="#16" y="6.513"/><use xlink:href="#17" y="8.684"/><use xlink:href="#18" y="10.855"/><use xlink:href="#19" y="13.026"/><use xlink:href="#20" y="15.197"/><use xlink:href="#16" y="17.368"/><use xlink:href="#21" y="21.71"/><use xlink:href="#22" y="26.052"/><use xlink:href="#23" y="28.223"/><use xlink:href="#24" y="30.394"/><use xlink:href="#26" y="34.736"/><use xlink:href="#27" y="36.907"/><use xlink:href="#28" y="39.078"/><use xlink:href="#29" y="41.249"/><use xlink:href="#31" y="45.591"/><use xlink:href="#32" y="47.762"/><use xlink:href="#33" y="49.933"/><use xlink:href="#34" y="52.104"/><use xlink:href="#35" y="54.275"/><use xlink:href="#36" y="56.446"/></svg><svg x="8100"><use xlink:href="#a"/><use xlink:href="#b" x="12.996" y="58.592"/><use xlink:href="#5"/><use xlink:href="#6" y="2.171"/><use xlink:href="#7" y="4.342"/><use xlink:href="#16" y="6.513"/><use xlink:href="#17" y="8.684"/><use xlink:href="#18" y="10.855"/><use xlink:href="#19" y="13.026"/><use xlink:href="#20" y="15.197"/><use xlink:href="#16" y="17.368"/><use xlink:href="#21" y="21.71"/><use xlink:href="#22" y="26.052"/><use xlink:href="#23" y="28.223"/><use xlink:href="#24" y="30.394"/><use xlink:href="#26" y="34.736"/><use xlink:href="#27" y="36.907"/><use xlink:href="#28" y="39.078"/><use xlink:href="#29" y="41.249"/><use xlink:href="#31" y="45.591"/><use xlink:href="#32" y="47.762"/><use xlink:href="#33" y="49.933"/><use xlink:href="#34" y="52.104"/><use xlink:href="#35" y="54.275"/><use xlink:href="#36" y="56.446"/><use xlink:href="#30" y="58.617"/></svg><svg x="8190"><use xlink:href="#a"/><use xlink:href="#b" x="12.996" y="58.592"/><use xlink:href="#5"/><use xlink:href="#6" y="2.171"/><use xlink:href="#7" y="4.342"/><use xlink:href="#16" y="6.513"/><use xlink:href="#17" y="8.684"/><use xlink:href="#18" y="10.855"/><use xlink:href="#19" y="13.026"/><use xlink:href="#20" y="15.197"/><use xlink:href="#16" y="17.368"/><use xlink:href="#21" y="21.71"/><use xlink:href="#22" y="26.052"/><use xlink:href="#23" y="28.223"/><use xlink:href="#24" y="30.394"/><use xlink:href="#26" y="34.736"/><use xlink:href="#27" y="36.907"/><use xlink:href="#28" y="39.078"/><use xlink:href="#29" y="41.249"/><use xlink:href="#31" y="45.591"/><use xlink:href="#32" y="47.762"/><use xlink:href="#33" y="49.933"/><use xlink:href="#34" y="52.104"/><use xlink:href="#35" y="54.275"/><use xlink:href="#36" y="56.446"/><use xlink:href="#30" y="58.617"/></svg></svg></g></g></svg></svg>