<svg xmlns="http://www.w3.org/2000/svg" xmlns:xlink="http://www.w3.org/1999/xlink" width="940" height="711.3"><rect width="940" height="711.3" rx="5" ry="5" class="a"/><svg y="0%" x="0%"><circle cx="20" cy="20" r="6" fill="#ff5f58"/><circle cx="40" cy="20" r="6" fill="#ffbd2e"/><circle cx="60" cy="20" r="6" fill="#18c132"/></svg><svg height="651.3" viewBox="0 0 90 65.13" width="900" x="15" xmlns="http://www.w3.org/2000/svg" xmlns:xlink="http://www.w3.org/1999/xlink" y="50"><style>@keyframes m{0%{transform:translateX(0)}4.27%{transform:translateX(-90px)}8.35%{transform:translateX(-180px)}10.8%{transform:translateX(-270px)}11.52%{transform:translateX(-360px)}12.05%{transform:translateX(-450px)}12.73%{transform:translateX(-540px)}13.26%{transform:translateX(-630px)}13.95%{transform:translateX(-720px)}15.8%{transform:translateX(-1170px)}15.81%{transform:translateX(-1350px)}17.21%{transform:translateX(-1440px)}18.52%{transform:translateX(-1530px)}19.21%{transform:translateX(-1620px)}19.73%{transform:translateX(-1710px)}20.29%{transform:translateX(-1800px)}20.72%{transform:translateX(-1890px)}21.36%{transform:translateX(-1980px)}21.72%{transform:translateX(-2070px)}26.15%{transform:translateX(-2160px)}26.92%{transform:translateX(-2250px)}27.61%{transform:translateX(-2340px)}28.02%{transform:translateX(-2430px)}28.56%{transform:translateX(-2520px)}33.64%{transform:translateX(-2610px)}34.36%{transform:translateX(-2700px)}34.88%{transform:translateX(-2790px)}36.73%{transform:translateX(-2880px)}37.47%{transform:translateX(-2970px)}37.84%{transform:translateX(-3060px)}38.55%{transform:translateX(-3150px)}39.59%{transform:translateX(-3240px)}44.26%{transform:translateX(-3330px)}44.77%{transform:translateX(-3420px)}46.13%{transform:translateX(-3510px)}46.63%{transform:translateX(-3600px)}47.73%{transform:translateX(-3690px)}49.54%{transform:translateX(-3780px)}50.54%{transform:translateX(-3870px)}51.47%{transform:translateX(-3960px)}53.87%{transform:translateX(-4050px)}53.88%{transform:translateX(-4140px)}62.9%{transform:translateX(-4230px)}76.7%{transform:translateX(-4410px)}77%{transform:translateX(-4500px)}85.79%{transform:translateX(-4590px)}86.47%{transform:translateX(-4680px)}87.15%{transform:translateX(-4770px)}88.84%{transform:translateX(-4860px)}91.17%{transform:translateX(-4950px)}94.05%{transform:translateX(-5040px)}94.06%{transform:translateX(-5220px)}to{transform:translateX(-5310px)}}.a{fill:#282d35}.f{fill:#b9c0cb}.f,.g,.h,.i{white-space:pre}.g{fill:#b9c0cb;text-decoration:underline}.h,.i{fill:#71bef2}.i{font-weight:700}</style><g font-family="Monaco,Consolas,Menlo,'Bitstream Vera Sans Mono','Powerline Symbols',monospace" font-size="1.67"><defs><symbol id="1"><text y="1.67" class="f">(</text><text x="1.002" y="1.67" class="g">seashell</text><text x="9.018" y="1.67" class="f">:</text><text x="11.022" y="1.67" class="h">192.168.2.108</text><text x="24.048" y="1.67" class="f">)&gt;</text></symbol><symbol id="2"><text y="1.67" class="f">(</text><text x="1.002" y="1.67" class="g">seashell</text><text x="9.018" y="1.67" class="f">:</text><text x="11.022" y="1.67" class="h">192.168.2.108</text><text x="24.048" y="1.67" class="f">)&gt;</text><text x="27.054" y="1.67" class="f">p</text></symbol><symbol id="3"><text y="1.67" class="f">(</text><text x="1.002" y="1.67" class="g">seashell</text><text x="9.018" y="1.67" class="f">:</text><text x="11.022" y="1.67" class="h">192.168.2.108</text><text x="24.048" y="1.67" class="f">)&gt;</text><text x="27.054" y="1.67" class="f">pl</text></symbol><symbol id="4"><text y="1.67" class="f">(</text><text x="1.002" y="1.67" class="g">seashell</text><text x="9.018" y="1.67" class="f">:</text><text x="11.022" y="1.67" class="h">192.168.2.108</text><text x="24.048" y="1.67" class="f">)&gt;</text><text x="27.054" y="1.67" class="f">pla</text></symbol><symbol id="5"><text y="1.67" class="f">(</text><text x="1.002" y="1.67" class="g">seashell</text><text x="9.018" y="1.67" class="f">:</text><text x="11.022" y="1.67" class="h">192.168.2.108</text><text x="24.048" y="1.67" class="f">)&gt;</text><text x="27.054" y="1.67" class="f">play</text></symbol><symbol id="6"><text y="1.67" class="f">(</text><text x="1.002" y="1.67" class="g">seashell</text><text x="9.018" y="1.67" class="f">:</text><text x="11.022" y="1.67" class="h">192.168.2.108</text><text x="24.048" y="1.67" class="f">)&gt;</text><text x="27.054" y="1.67" class="f">playe</text></symbol><symbol id="7"><text y="1.67" class="f">(</text><text x="1.002" y="1.67" class="g">seashell</text><text x="9.018" y="1.67" class="f">:</text><text x="11.022" y="1.67" class="h">192.168.2.108</text><text x="24.048" y="1.67" class="f">)&gt;</text><text x="27.054" y="1.67" class="f">player</text></symbol><symbol id="8"><text y="1.67" class="f">Usage:</text><text x="7.014" y="1.67" class="f">player</text><text x="14.028" y="1.67" class="f">&lt;option&gt;</text></symbol><symbol id="9"><text y="1.67" class="f">Options:</text></symbol><symbol id="10"><text x="4.008" y="1.67" class="f">Option</text><text x="14.028" y="1.67" class="f">Arguments</text><text x="27.054" y="1.67" class="f">Description</text></symbol><symbol id="11"><text x="4.008" y="1.67" class="f">------</text><text x="14.028" y="1.67" class="f">---------</text><text x="27.054" y="1.67" class="f">-----------</text></symbol><symbol id="12"><text x="4.008" y="1.67" class="f">info</text><text x="27.054" y="1.67" class="f">Get</text><text x="31.062" y="1.67" class="f">current</text><text x="39.078" y="1.67" class="f">playing</text><text x="47.094" y="1.67" class="f">song.</text></symbol><symbol id="13"><text x="4.008" y="1.67" class="f">play</text><text x="27.054" y="1.67" class="f">Play</text><text x="32.064" y="1.67" class="f">the</text><text x="36.072" y="1.67" class="f">current</text><text x="44.088" y="1.67" class="f">song.</text></symbol><symbol id="14"><text x="4.008" y="1.67" class="f">pause</text><text x="27.054" y="1.67" class="f">Pause</text><text x="33.066" y="1.67" class="f">the</text><text x="37.074" y="1.67" class="f">current</text><text x="45.09" y="1.67" class="f">song.</text></symbol><symbol id="15"><text x="4.008" y="1.67" class="f">next</text><text x="27.054" y="1.67" class="f">Play</text><text x="32.064" y="1.67" class="f">next</text><text x="37.074" y="1.67" class="f">song.</text></symbol><symbol id="16"><text x="4.008" y="1.67" class="f">back</text><text x="27.054" y="1.67" class="f">Play</text><text x="32.064" y="1.67" class="f">previous</text><text x="41.082" y="1.67" class="f">song.</text></symbol><symbol id="17"><text x="4.008" y="1.67" class="f">wave</text><text x="14.028" y="1.67" class="f">&lt;file&gt;</text><text x="27.054" y="1.67" class="f">Play</text><text x="32.064" y="1.67" class="f">audio</text><text x="38.076" y="1.67" class="f">from</text><text x="43.086" y="1.67" class="f">file.</text></symbol><symbol id="18"><text y="1.67" class="f">(</text><text x="1.002" y="1.67" class="g">seashell</text><text x="9.018" y="1.67" class="f">:</text><text x="11.022" y="1.67" class="h">192.168.2.108</text><text x="24.048" y="1.67" class="f">)&gt;</text><text x="27.054" y="1.67" class="f">player</text><text x="34.068" y="1.67" class="f">wave</text></symbol><symbol id="19"><text y="1.67" class="f">(</text><text x="1.002" y="1.67" class="g">seashell</text><text x="9.018" y="1.67" class="f">:</text><text x="11.022" y="1.67" class="h">192.168.2.108</text><text x="24.048" y="1.67" class="f">)&gt;</text><text x="27.054" y="1.67" class="f">player</text><text x="34.068" y="1.67" class="f">wave</text><text x="39.078" y="1.67" class="f">Desktop/roll.mp3</text></symbol><symbol id="20"><text y="1.67" class="i">[*]</text><text x="4.008" y="1.67" class="f">Playing</text><text x="12.024" y="1.67" class="f">audio</text><text x="18.036" y="1.67" class="f">wave...</text></symbol><symbol id="21"><text y="1.67" style="white-space:pre" fill="#b9c0cb" font-weight="700">[i]</text><text x="4.008" y="1.67" class="f">Press</text><text x="10.02" y="1.67" class="f">Ctrl-C</text><text x="17.034" y="1.67" class="f">to</text><text x="20.04" y="1.67" class="f">stop.</text></symbol><symbol id="22"><text y="1.67" class="i">[*]</text><text x="4.008" y="1.67" class="f">Stopping...</text></symbol><symbol id="23"><text y="1.67" class="f">(</text><text x="1.002" y="1.67" class="g">seashell</text><text x="9.018" y="1.67" class="f">:</text><text x="11.022" y="1.67" class="h">192.168.2.108</text><text x="24.048" y="1.67" class="f">)&gt;</text><text x="27.054" y="1.67" class="f">clear</text></symbol><symbol id="a"><path fill="transparent" d="M0 0h90v30H0z"/></symbol><symbol id="b"><path fill="#6f7683" d="M0 0h1.102v2.171H0z"/></symbol></defs><path class="a" d="M0 0h90v65.13H0z"/><g style="animation-duration:23.406681s;animation-iteration-count:infinite;animation-name:m;animation-timing-function:steps(1,end)"><svg width="5400"><svg><use xlink:href="#a"/><use xlink:href="#b" x="-.004"/></svg><svg x="90"><use xlink:href="#a"/><use xlink:href="#b" x="-.004"/></svg><svg x="180"><use xlink:href="#a"/><use xlink:href="#b" x="26.996"/><use xlink:href="#1"/></svg><svg x="270"><use xlink:href="#a"/><use xlink:href="#b" x="27.996"/><use xlink:href="#2"/></svg><svg x="360"><use xlink:href="#a"/><use xlink:href="#b" x="28.996"/><use xlink:href="#3"/></svg><svg x="450"><use xlink:href="#a"/><use xlink:href="#b" x="29.996"/><use xlink:href="#4"/></svg><svg x="540"><use xlink:href="#a"/><use xlink:href="#b" x="30.996"/><use xlink:href="#5"/></svg><svg x="630"><use xlink:href="#a"/><use xlink:href="#b" x="31.996"/><use xlink:href="#6"/></svg><svg x="720"><use xlink:href="#a"/><use xlink:href="#b" x="32.996"/><use xlink:href="#7"/></svg><svg x="810"><use xlink:href="#a"/><use xlink:href="#b" x="-.004" y="2.146"/><use xlink:href="#7"/></svg><svg x="900"><use xlink:href="#a"/><use xlink:href="#b" x="-.004" y="4.317"/><use xlink:href="#7"/><use xlink:href="#8" y="2.171"/></svg><svg x="990"><use xlink:href="#a"/><use xlink:href="#b" x="-.004" y="15.172"/><use xlink:href="#7"/><use xlink:href="#8" y="2.171"/><use xlink:href="#9" y="6.513"/><use xlink:href="#10" y="10.855"/><use xlink:href="#11" y="13.026"/></svg><svg x="1080"><use xlink:href="#a"/><use xlink:href="#b" x="-.004" y="19.514"/><use xlink:href="#7"/><use xlink:href="#8" y="2.171"/><use xlink:href="#9" y="6.513"/><use xlink:href="#10" y="10.855"/><use xlink:href="#11" y="13.026"/><use xlink:href="#12" y="15.197"/><use xlink:href="#13" y="17.368"/></svg><svg x="1170"><use xlink:href="#a"/><use xlink:href="#b" x="-.004" y="21.685"/><use xlink:href="#7"/><use xlink:href="#8" y="2.171"/><use xlink:href="#9" y="6.513"/><use xlink:href="#10" y="10.855"/><use xlink:href="#11" y="13.026"/><use xlink:href="#12" y="15.197"/><use xlink:href="#13" y="17.368"/><use xlink:href="#14" y="19.539"/></svg><svg x="1260"><use xlink:href="#a"/><use xlink:href="#b" x="-.004" y="28.198"/><use xlink:href="#7"/><use xlink:href="#8" y="2.171"/><use xlink:href="#9" y="6.513"/><use xlink:href="#10" y="10.855"/><use xlink:href="#11" y="13.026"/><use xlink:href="#12" y="15.197"/><use xlink:href="#13" y="17.368"/><use xlink:href="#14" y="19.539"/><use xlink:href="#15" y="21.71"/><use xlink:href="#16" y="23.881"/><use xlink:href="#17" y="26.052"/></svg><svg x="1350"><use xlink:href="#a"/><use xlink:href="#b" x="-.004" y="30.369"/><use xlink:href="#7"/><use xlink:href="#8" y="2.171"/><use xlink:href="#9" y="6.513"/><use xlink:href="#10" y="10.855"/><use xlink:href="#11" y="13.026"/><use xlink:href="#12" y="15.197"/><use xlink:href="#13" y="17.368"/><use xlink:href="#14" y="19.539"/><use xlink:href="#15" y="21.71"/><use xlink:href="#16" y="23.881"/><use xlink:href="#17" y="26.052"/></svg><svg x="1440"><use xlink:href="#a"/><use xlink:href="#b" x="26.996" y="30.369"/><use xlink:href="#7"/><use xlink:href="#8" y="2.171"/><use xlink:href="#9" y="6.513"/><use xlink:href="#10" y="10.855"/><use xlink:href="#11" y="13.026"/><use xlink:href="#12" y="15.197"/><use xlink:href="#13" y="17.368"/><use xlink:href="#14" y="19.539"/><use xlink:href="#15" y="21.71"/><use xlink:href="#16" y="23.881"/><use xlink:href="#17" y="26.052"/><use xlink:href="#1" y="30.394"/></svg><svg x="1530"><use xlink:href="#a"/><use xlink:href="#b" x="27.996" y="30.369"/><use xlink:href="#7"/><use xlink:href="#8" y="2.171"/><use xlink:href="#9" y="6.513"/><use xlink:href="#10" y="10.855"/><use xlink:href="#11" y="13.026"/><use xlink:href="#12" y="15.197"/><use xlink:href="#13" y="17.368"/><use xlink:href="#14" y="19.539"/><use xlink:href="#15" y="21.71"/><use xlink:href="#16" y="23.881"/><use xlink:href="#17" y="26.052"/><use xlink:href="#2" y="30.394"/></svg><svg x="1620"><use xlink:href="#a"/><use xlink:href="#b" x="28.996" y="30.369"/><use xlink:href="#7"/><use xlink:href="#8" y="2.171"/><use xlink:href="#9" y="6.513"/><use xlink:href="#10" y="10.855"/><use xlink:href="#11" y="13.026"/><use xlink:href="#12" y="15.197"/><use xlink:href="#13" y="17.368"/><use xlink:href="#14" y="19.539"/><use xlink:href="#15" y="21.71"/><use xlink:href="#16" y="23.881"/><use xlink:href="#17" y="26.052"/><use xlink:href="#3" y="30.394"/></svg><svg x="1710"><use xlink:href="#a"/><use xlink:href="#b" x="29.996" y="30.369"/><use xlink:href="#7"/><use xlink:href="#8" y="2.171"/><use xlink:href="#9" y="6.513"/><use xlink:href="#10" y="10.855"/><use xlink:href="#11" y="13.026"/><use xlink:href="#12" y="15.197"/><use xlink:href="#13" y="17.368"/><use xlink:href="#14" y="19.539"/><use xlink:href="#15" y="21.71"/><use xlink:href="#16" y="23.881"/><use xlink:href="#17" y="26.052"/><use xlink:href="#4" y="30.394"/></svg><svg x="1800"><use xlink:href="#a"/><use xlink:href="#b" x="30.996" y="30.369"/><use xlink:href="#7"/><use xlink:href="#8" y="2.171"/><use xlink:href="#9" y="6.513"/><use xlink:href="#10" y="10.855"/><use xlink:href="#11" y="13.026"/><use xlink:href="#12" y="15.197"/><use xlink:href="#13" y="17.368"/><use xlink:href="#14" y="19.539"/><use xlink:href="#15" y="21.71"/><use xlink:href="#16" y="23.881"/><use xlink:href="#17" y="26.052"/><use xlink:href="#5" y="30.394"/></svg><svg x="1890"><use xlink:href="#a"/><use xlink:href="#b" x="31.996" y="30.369"/><use xlink:href="#7"/><use xlink:href="#8" y="2.171"/><use xlink:href="#9" y="6.513"/><use xlink:href="#10" y="10.855"/><use xlink:href="#11" y="13.026"/><use xlink:href="#12" y="15.197"/><use xlink:href="#13" y="17.368"/><use xlink:href="#14" y="19.539"/><use xlink:href="#15" y="21.71"/><use xlink:href="#16" y="23.881"/><use xlink:href="#17" y="26.052"/><use xlink:href="#6" y="30.394"/></svg><svg x="1980"><use xlink:href="#a"/><use xlink:href="#b" x="32.996" y="30.369"/><use xlink:href="#7"/><use xlink:href="#8" y="2.171"/><use xlink:href="#9" y="6.513"/><use xlink:href="#10" y="10.855"/><use xlink:href="#11" y="13.026"/><use xlink:href="#12" y="15.197"/><use xlink:href="#13" y="17.368"/><use xlink:href="#14" y="19.539"/><use xlink:href="#15" y="21.71"/><use xlink:href="#16" y="23.881"/><use xlink:href="#17" y="26.052"/><use xlink:href="#7" y="30.394"/></svg><svg x="2070"><use xlink:href="#a"/><use xlink:href="#b" x="33.996" y="30.369"/><use xlink:href="#7"/><use xlink:href="#8" y="2.171"/><use xlink:href="#9" y="6.513"/><use xlink:href="#10" y="10.855"/><use xlink:href="#11" y="13.026"/><use xlink:href="#12" y="15.197"/><use xlink:href="#13" y="17.368"/><use xlink:href="#14" y="19.539"/><use xlink:href="#15" y="21.71"/><use xlink:href="#16" y="23.881"/><use xlink:href="#17" y="26.052"/><use xlink:href="#7" y="30.394"/></svg><svg x="2160"><use xlink:href="#a"/><use xlink:href="#b" x="34.996" y="30.369"/><use xlink:href="#7"/><use xlink:href="#8" y="2.171"/><use xlink:href="#9" y="6.513"/><use xlink:href="#10" y="10.855"/><use xlink:href="#11" y="13.026"/><use xlink:href="#12" y="15.197"/><use xlink:href="#13" y="17.368"/><use xlink:href="#14" y="19.539"/><use xlink:href="#15" y="21.71"/><use xlink:href="#16" y="23.881"/><use xlink:href="#17" y="26.052"/><text y="32.064" class="f">(</text><text x="1.002" y="32.064" class="g">seashell</text><text x="9.018" y="32.064" class="f">:</text><text x="11.022" y="32.064" class="h">192.168.2.108</text><text x="24.048" y="32.064" class="f">)&gt;</text><text x="27.054" y="32.064" class="f">player</text><text x="34.068" y="32.064" class="f">w</text></svg><svg x="2250"><use xlink:href="#a"/><use xlink:href="#b" x="35.996" y="30.369"/><use xlink:href="#7"/><use xlink:href="#8" y="2.171"/><use xlink:href="#9" y="6.513"/><use xlink:href="#10" y="10.855"/><use xlink:href="#11" y="13.026"/><use xlink:href="#12" y="15.197"/><use xlink:href="#13" y="17.368"/><use xlink:href="#14" y="19.539"/><use xlink:href="#15" y="21.71"/><use xlink:href="#16" y="23.881"/><use xlink:href="#17" y="26.052"/><text y="32.064" class="f">(</text><text x="1.002" y="32.064" class="g">seashell</text><text x="9.018" y="32.064" class="f">:</text><text x="11.022" y="32.064" class="h">192.168.2.108</text><text x="24.048" y="32.064" class="f">)&gt;</text><text x="27.054" y="32.064" class="f">player</text><text x="34.068" y="32.064" class="f">wa</text></svg><svg x="2340"><use xlink:href="#a"/><use xlink:href="#b" x="36.996" y="30.369"/><use xlink:href="#7"/><use xlink:href="#8" y="2.171"/><use xlink:href="#9" y="6.513"/><use xlink:href="#10" y="10.855"/><use xlink:href="#11" y="13.026"/><use xlink:href="#12" y="15.197"/><use xlink:href="#13" y="17.368"/><use xlink:href="#14" y="19.539"/><use xlink:href="#15" y="21.71"/><use xlink:href="#16" y="23.881"/><use xlink:href="#17" y="26.052"/><text y="32.064" class="f">(</text><text x="1.002" y="32.064" class="g">seashell</text><text x="9.018" y="32.064" class="f">:</text><text x="11.022" y="32.064" class="h">192.168.2.108</text><text x="24.048" y="32.064" class="f">)&gt;</text><text x="27.054" y="32.064" class="f">player</text><text x="34.068" y="32.064" class="f">wav</text></svg><svg x="2430"><use xlink:href="#a"/><use xlink:href="#b" x="37.996" y="30.369"/><use xlink:href="#7"/><use xlink:href="#8" y="2.171"/><use xlink:href="#9" y="6.513"/><use xlink:href="#10" y="10.855"/><use xlink:href="#11" y="13.026"/><use xlink:href="#12" y="15.197"/><use xlink:href="#13" y="17.368"/><use xlink:href="#14" y="19.539"/><use xlink:href="#15" y="21.71"/><use xlink:href="#16" y="23.881"/><use xlink:href="#17" y="26.052"/><use xlink:href="#18" y="30.394"/></svg><svg x="2520"><use xlink:href="#a"/><use xlink:href="#b" x="38.996" y="30.369"/><use xlink:href="#7"/><use xlink:href="#8" y="2.171"/><use xlink:href="#9" y="6.513"/><use xlink:href="#10" y="10.855"/><use xlink:href="#11" y="13.026"/><use xlink:href="#12" y="15.197"/><use xlink:href="#13" y="17.368"/><use xlink:href="#14" y="19.539"/><use xlink:href="#15" y="21.71"/><use xlink:href="#16" y="23.881"/><use xlink:href="#17" y="26.052"/><use xlink:href="#18" y="30.394"/></svg><svg x="2610"><use xlink:href="#a"/><use xlink:href="#b" x="39.996" y="30.369"/><use xlink:href="#7"/><use xlink:href="#8" y="2.171"/><use xlink:href="#9" y="6.513"/><use xlink:href="#10" y="10.855"/><use xlink:href="#11" y="13.026"/><use xlink:href="#12" y="15.197"/><use xlink:href="#13" y="17.368"/><use xlink:href="#14" y="19.539"/><use xlink:href="#15" y="21.71"/><use xlink:href="#16" y="23.881"/><use xlink:href="#17" y="26.052"/><text y="32.064" class="f">(</text><text x="1.002" y="32.064" class="g">seashell</text><text x="9.018" y="32.064" class="f">:</text><text x="11.022" y="32.064" class="h">192.168.2.108</text><text x="24.048" y="32.064" class="f">)&gt;</text><text x="27.054" y="32.064" class="f">player</text><text x="34.068" y="32.064" class="f">wave</text><text x="39.078" y="32.064" class="f">D</text></svg><svg x="2700"><use xlink:href="#a"/><use xlink:href="#b" x="40.996" y="30.369"/><use xlink:href="#7"/><use xlink:href="#8" y="2.171"/><use xlink:href="#9" y="6.513"/><use xlink:href="#10" y="10.855"/><use xlink:href="#11" y="13.026"/><use xlink:href="#12" y="15.197"/><use xlink:href="#13" y="17.368"/><use xlink:href="#14" y="19.539"/><use xlink:href="#15" y="21.71"/><use xlink:href="#16" y="23.881"/><use xlink:href="#17" y="26.052"/><text y="32.064" class="f">(</text><text x="1.002" y="32.064" class="g">seashell</text><text x="9.018" y="32.064" class="f">:</text><text x="11.022" y="32.064" class="h">192.168.2.108</text><text x="24.048" y="32.064" class="f">)&gt;</text><text x="27.054" y="32.064" class="f">player</text><text x="34.068" y="32.064" class="f">wave</text><text x="39.078" y="32.064" class="f">De</text></svg><svg x="2790"><use xlink:href="#a"/><use xlink:href="#b" x="41.996" y="30.369"/><use xlink:href="#7"/><use xlink:href="#8" y="2.171"/><use xlink:href="#9" y="6.513"/><use xlink:href="#10" y="10.855"/><use xlink:href="#11" y="13.026"/><use xlink:href="#12" y="15.197"/><use xlink:href="#13" y="17.368"/><use xlink:href="#14" y="19.539"/><use xlink:href="#15" y="21.71"/><use xlink:href="#16" y="23.881"/><use xlink:href="#17" y="26.052"/><text y="32.064" class="f">(</text><text x="1.002" y="32.064" class="g">seashell</text><text x="9.018" y="32.064" class="f">:</text><text x="11.022" y="32.064" class="h">192.168.2.108</text><text x="24.048" y="32.064" class="f">)&gt;</text><text x="27.054" y="32.064" class="f">player</text><text x="34.068" y="32.064" class="f">wave</text><text x="39.078" y="32.064" class="f">Des</text></svg><svg x="2880"><use xlink:href="#a"/><use xlink:href="#b" x="42.996" y="30.369"/><use xlink:href="#7"/><use xlink:href="#8" y="2.171"/><use xlink:href="#9" y="6.513"/><use xlink:href="#10" y="10.855"/><use xlink:href="#11" y="13.026"/><use xlink:href="#12" y="15.197"/><use xlink:href="#13" y="17.368"/><use xlink:href="#14" y="19.539"/><use xlink:href="#15" y="21.71"/><use xlink:href="#16" y="23.881"/><use xlink:href="#17" y="26.052"/><text y="32.064" class="f">(</text><text x="1.002" y="32.064" class="g">seashell</text><text x="9.018" y="32.064" class="f">:</text><text x="11.022" y="32.064" class="h">192.168.2.108</text><text x="24.048" y="32.064" class="f">)&gt;</text><text x="27.054" y="32.064" class="f">player</text><text x="34.068" y="32.064" class="f">wave</text><text x="39.078" y="32.064" class="f">Desk</text></svg><svg x="2970"><use xlink:href="#a"/><use xlink:href="#b" x="43.996" y="30.369"/><use xlink:href="#7"/><use xlink:href="#8" y="2.171"/><use xlink:href="#9" y="6.513"/><use xlink:href="#10" y="10.855"/><use xlink:href="#11" y="13.026"/><use xlink:href="#12" y="15.197"/><use xlink:href="#13" y="17.368"/><use xlink:href="#14" y="19.539"/><use xlink:href="#15" y="21.71"/><use xlink:href="#16" y="23.881"/><use xlink:href="#17" y="26.052"/><text y="32.064" class="f">(</text><text x="1.002" y="32.064" class="g">seashell</text><text x="9.018" y="32.064" class="f">:</text><text x="11.022" y="32.064" class="h">192.168.2.108</text><text x="24.048" y="32.064" class="f">)&gt;</text><text x="27.054" y="32.064" class="f">player</text><text x="34.068" y="32.064" class="f">wave</text><text x="39.078" y="32.064" class="f">Deskt</text></svg><svg x="3060"><use xlink:href="#a"/><use xlink:href="#b" x="44.996" y="30.369"/><use xlink:href="#7"/><use xlink:href="#8" y="2.171"/><use xlink:href="#9" y="6.513"/><use xlink:href="#10" y="10.855"/><use xlink:href="#11" y="13.026"/><use xlink:href="#12" y="15.197"/><use xlink:href="#13" y="17.368"/><use xlink:href="#14" y="19.539"/><use xlink:href="#15" y="21.71"/><use xlink:href="#16" y="23.881"/><use xlink:href="#17" y="26.052"/><text y="32.064" class="f">(</text><text x="1.002" y="32.064" class="g">seashell</text><text x="9.018" y="32.064" class="f">:</text><text x="11.022" y="32.064" class="h">192.168.2.108</text><text x="24.048" y="32.064" class="f">)&gt;</text><text x="27.054" y="32.064" class="f">player</text><text x="34.068" y="32.064" class="f">wave</text><text x="39.078" y="32.064" class="f">Deskto</text></svg><svg x="3150"><use xlink:href="#a"/><use xlink:href="#b" x="45.996" y="30.369"/><use xlink:href="#7"/><use xlink:href="#8" y="2.171"/><use xlink:href="#9" y="6.513"/><use xlink:href="#10" y="10.855"/><use xlink:href="#11" y="13.026"/><use xlink:href="#12" y="15.197"/><use xlink:href="#13" y="17.368"/><use xlink:href="#14" y="19.539"/><use xlink:href="#15" y="21.71"/><use xlink:href="#16" y="23.881"/><use xlink:href="#17" y="26.052"/><text y="32.064" class="f">(</text><text x="1.002" y="32.064" class="g">seashell</text><text x="9.018" y="32.064" class="f">:</text><text x="11.022" y="32.064" class="h">192.168.2.108</text><text x="24.048" y="32.064" class="f">)&gt;</text><text x="27.054" y="32.064" class="f">player</text><text x="34.068" y="32.064" class="f">wave</text><text x="39.078" y="32.064" class="f">Desktop</text></svg><svg x="3240"><use xlink:href="#a"/><use xlink:href="#b" x="46.996" y="30.369"/><use xlink:href="#7"/><use xlink:href="#8" y="2.171"/><use xlink:href="#9" y="6.513"/><use xlink:href="#10" y="10.855"/><use xlink:href="#11" y="13.026"/><use xlink:href="#12" y="15.197"/><use xlink:href="#13" y="17.368"/><use xlink:href="#14" y="19.539"/><use xlink:href="#15" y="21.71"/><use xlink:href="#16" y="23.881"/><use xlink:href="#17" y="26.052"/><text y="32.064" class="f">(</text><text x="1.002" y="32.064" class="g">seashell</text><text x="9.018" y="32.064" class="f">:</text><text x="11.022" y="32.064" class="h">192.168.2.108</text><text x="24.048" y="32.064" class="f">)&gt;</text><text x="27.054" y="32.064" class="f">player</text><text x="34.068" y="32.064" class="f">wave</text><text x="39.078" y="32.064" class="f">Desktop/</text></svg><svg x="3330"><use xlink:href="#a"/><use xlink:href="#b" x="47.996" y="30.369"/><use xlink:href="#7"/><use xlink:href="#8" y="2.171"/><use xlink:href="#9" y="6.513"/><use xlink:href="#10" y="10.855"/><use xlink:href="#11" y="13.026"/><use xlink:href="#12" y="15.197"/><use xlink:href="#13" y="17.368"/><use xlink:href="#14" y="19.539"/><use xlink:href="#15" y="21.71"/><use xlink:href="#16" y="23.881"/><use xlink:href="#17" y="26.052"/><text y="32.064" class="f">(</text><text x="1.002" y="32.064" class="g">seashell</text><text x="9.018" y="32.064" class="f">:</text><text x="11.022" y="32.064" class="h">192.168.2.108</text><text x="24.048" y="32.064" class="f">)&gt;</text><text x="27.054" y="32.064" class="f">player</text><text x="34.068" y="32.064" class="f">wave</text><text x="39.078" y="32.064" class="f">Desktop/r</text></svg><svg x="3420"><use xlink:href="#a"/><use xlink:href="#b" x="48.996" y="30.369"/><use xlink:href="#7"/><use xlink:href="#8" y="2.171"/><use xlink:href="#9" y="6.513"/><use xlink:href="#10" y="10.855"/><use xlink:href="#11" y="13.026"/><use xlink:href="#12" y="15.197"/><use xlink:href="#13" y="17.368"/><use xlink:href="#14" y="19.539"/><use xlink:href="#15" y="21.71"/><use xlink:href="#16" y="23.881"/><use xlink:href="#17" y="26.052"/><text y="32.064" class="f">(</text><text x="1.002" y="32.064" class="g">seashell</text><text x="9.018" y="32.064" class="f">:</text><text x="11.022" y="32.064" class="h">192.168.2.108</text><text x="24.048" y="32.064" class="f">)&gt;</text><text x="27.054" y="32.064" class="f">player</text><text x="34.068" y="32.064" class="f">wave</text><text x="39.078" y="32.064" class="f">Desktop/ro</text></svg><svg x="3510"><use xlink:href="#a"/><use xlink:href="#b" x="49.996" y="30.369"/><use xlink:href="#7"/><use xlink:href="#8" y="2.171"/><use xlink:href="#9" y="6.513"/><use xlink:href="#10" y="10.855"/><use xlink:href="#11" y="13.026"/><use xlink:href="#12" y="15.197"/><use xlink:href="#13" y="17.368"/><use xlink:href="#14" y="19.539"/><use xlink:href="#15" y="21.71"/><use xlink:href="#16" y="23.881"/><use xlink:href="#17" y="26.052"/><text y="32.064" class="f">(</text><text x="1.002" y="32.064" class="g">seashell</text><text x="9.018" y="32.064" class="f">:</text><text x="11.022" y="32.064" class="h">192.168.2.108</text><text x="24.048" y="32.064" class="f">)&gt;</text><text x="27.054" y="32.064" class="f">player</text><text x="34.068" y="32.064" class="f">wave</text><text x="39.078" y="32.064" class="f">Desktop/rol</text></svg><svg x="3600"><use xlink:href="#a"/><use xlink:href="#b" x="50.996" y="30.369"/><use xlink:href="#7"/><use xlink:href="#8" y="2.171"/><use xlink:href="#9" y="6.513"/><use xlink:href="#10" y="10.855"/><use xlink:href="#11" y="13.026"/><use xlink:href="#12" y="15.197"/><use xlink:href="#13" y="17.368"/><use xlink:href="#14" y="19.539"/><use xlink:href="#15" y="21.71"/><use xlink:href="#16" y="23.881"/><use xlink:href="#17" y="26.052"/><text y="32.064" class="f">(</text><text x="1.002" y="32.064" class="g">seashell</text><text x="9.018" y="32.064" class="f">:</text><text x="11.022" y="32.064" class="h">192.168.2.108</text><text x="24.048" y="32.064" class="f">)&gt;</text><text x="27.054" y="32.064" class="f">player</text><text x="34.068" y="32.064" class="f">wave</text><text x="39.078" y="32.064" class="f">Desktop/roll</text></svg><svg x="3690"><use xlink:href="#a"/><use xlink:href="#b" x="51.996" y="30.369"/><use xlink:href="#7"/><use xlink:href="#8" y="2.171"/><use xlink:href="#9" y="6.513"/><use xlink:href="#10" y="10.855"/><use xlink:href="#11" y="13.026"/><use xlink:href="#12" y="15.197"/><use xlink:href="#13" y="17.368"/><use xlink:href="#14" y="19.539"/><use xlink:href="#15" y="21.71"/><use xlink:href="#16" y="23.881"/><use xlink:href="#17" y="26.052"/><text y="32.064" class="f">(</text><text x="1.002" y="32.064" class="g">seashell</text><text x="9.018" y="32.064" class="f">:</text><text x="11.022" y="32.064" class="h">192.168.2.108</text><text x="24.048" y="32.064" class="f">)&gt;</text><text x="27.054" y="32.064" class="f">player</text><text x="34.068" y="32.064" class="f">wave</text><text x="39.078" y="32.064" class="f">Desktop/roll.</text></svg><svg x="3780"><use xlink:href="#a"/><use xlink:href="#b" x="52.996" y="30.369"/><use xlink:href="#7"/><use xlink:href="#8" y="2.171"/><use xlink:href="#9" y="6.513"/><use xlink:href="#10" y="10.855"/><use xlink:href="#11" y="13.026"/><use xlink:href="#12" y="15.197"/><use xlink:href="#13" y="17.368"/><use xlink:href="#14" y="19.539"/><use xlink:href="#15" y="21.71"/><use xlink:href="#16" y="23.881"/><use xlink:href="#17" y="26.052"/><text y="32.064" class="f">(</text><text x="1.002" y="32.064" class="g">seashell</text><text x="9.018" y="32.064" class="f">:</text><text x="11.022" y="32.064" class="h">192.168.2.108</text><text x="24.048" y="32.064" class="f">)&gt;</text><text x="27.054" y="32.064" class="f">player</text><text x="34.068" y="32.064" class="f">wave</text><text x="39.078" y="32.064" class="f">Desktop/roll.m</text></svg><svg x="3870"><use xlink:href="#a"/><use xlink:href="#b" x="53.996" y="30.369"/><use xlink:href="#7"/><use xlink:href="#8" y="2.171"/><use xlink:href="#9" y="6.513"/><use xlink:href="#10" y="10.855"/><use xlink:href="#11" y="13.026"/><use xlink:href="#12" y="15.197"/><use xlink:href="#13" y="17.368"/><use xlink:href="#14" y="19.539"/><use xlink:href="#15" y="21.71"/><use xlink:href="#16" y="23.881"/><use xlink:href="#17" y="26.052"/><text y="32.064" class="f">(</text><text x="1.002" y="32.064" class="g">seashell</text><text x="9.018" y="32.064" class="f">:</text><text x="11.022" y="32.064" class="h">192.168.2.108</text><text x="24.048" y="32.064" class="f">)&gt;</text><text x="27.054" y="32.064" class="f">player</text><text x="34.068" y="32.064" class="f">wave</text><text x="39.078" y="32.064" class="f">Desktop/roll.mp</text></svg><svg x="3960"><use xlink:href="#a"/><use xlink:href="#b" x="54.996" y="30.369"/><use xlink:href="#7"/><use xlink:href="#8" y="2.171"/><use xlink:href="#9" y="6.513"/><use xlink:href="#10" y="10.855"/><use xlink:href="#11" y="13.026"/><use xlink:href="#12" y="15.197"/><use xlink:href="#13" y="17.368"/><use xlink:href="#14" y="19.539"/><use xlink:href="#15" y="21.71"/><use xlink:href="#16" y="23.881"/><use xlink:href="#17" y="26.052"/><use xlink:href="#19" y="30.394"/></svg><svg x="4050"><use xlink:href="#a"/><use xlink:href="#b" x="-.004" y="32.54"/><use xlink:href="#7"/><use xlink:href="#8" y="2.171"/><use xlink:href="#9" y="6.513"/><use xlink:href="#10" y="10.855"/><use xlink:href="#11" y="13.026"/><use xlink:href="#12" y="15.197"/><use xlink:href="#13" y="17.368"/><use xlink:href="#14" y="19.539"/><use xlink:href="#15" y="21.71"/><use xlink:href="#16" y="23.881"/><use xlink:href="#17" y="26.052"/><use xlink:href="#19" y="30.394"/></svg><svg x="4140"><use xlink:href="#a"/><use xlink:href="#b" x="-.004" y="34.711"/><use xlink:href="#7"/><use xlink:href="#8" y="2.171"/><use xlink:href="#9" y="6.513"/><use xlink:href="#10" y="10.855"/><use xlink:href="#11" y="13.026"/><use xlink:href="#12" y="15.197"/><use xlink:href="#13" y="17.368"/><use xlink:href="#14" y="19.539"/><use xlink:href="#15" y="21.71"/><use xlink:href="#16" y="23.881"/><use xlink:href="#17" y="26.052"/><use xlink:href="#19" y="30.394"/><use xlink:href="#20" y="32.565"/></svg><svg x="4230"><use xlink:href="#a"/><use xlink:href="#b" x="-.004" y="36.882"/><use xlink:href="#7"/><use xlink:href="#8" y="2.171"/><use xlink:href="#9" y="6.513"/><use xlink:href="#10" y="10.855"/><use xlink:href="#11" y="13.026"/><use xlink:href="#12" y="15.197"/><use xlink:href="#13" y="17.368"/><use xlink:href="#14" y="19.539"/><use xlink:href="#15" y="21.71"/><use xlink:href="#16" y="23.881"/><use xlink:href="#17" y="26.052"/><use xlink:href="#19" y="30.394"/><use xlink:href="#20" y="32.565"/><use xlink:href="#21" y="34.736"/></svg><svg x="4320"><use xlink:href="#a"/><use xlink:href="#b" x="1.996" y="36.882"/><use xlink:href="#7"/><use xlink:href="#8" y="2.171"/><use xlink:href="#9" y="6.513"/><use xlink:href="#10" y="10.855"/><use xlink:href="#11" y="13.026"/><use xlink:href="#12" y="15.197"/><use xlink:href="#13" y="17.368"/><use xlink:href="#14" y="19.539"/><use xlink:href="#15" y="21.71"/><use xlink:href="#16" y="23.881"/><use xlink:href="#17" y="26.052"/><use xlink:href="#19" y="30.394"/><use xlink:href="#20" y="32.565"/><use xlink:href="#21" y="34.736"/><text y="38.577" class="f">^C</text></svg><svg x="4410"><use xlink:href="#a"/><use xlink:href="#b" x="-.004" y="39.053"/><use xlink:href="#7"/><use xlink:href="#8" y="2.171"/><use xlink:href="#9" y="6.513"/><use xlink:href="#10" y="10.855"/><use xlink:href="#11" y="13.026"/><use xlink:href="#12" y="15.197"/><use xlink:href="#13" y="17.368"/><use xlink:href="#14" y="19.539"/><use xlink:href="#15" y="21.71"/><use xlink:href="#16" y="23.881"/><use xlink:href="#17" y="26.052"/><use xlink:href="#19" y="30.394"/><use xlink:href="#20" y="32.565"/><use xlink:href="#21" y="34.736"/><use xlink:href="#22" y="36.907"/></svg><svg x="4500"><use xlink:href="#a"/><use xlink:href="#b" x="26.996" y="39.053"/><use xlink:href="#7"/><use xlink:href="#8" y="2.171"/><use xlink:href="#9" y="6.513"/><use xlink:href="#10" y="10.855"/><use xlink:href="#11" y="13.026"/><use xlink:href="#12" y="15.197"/><use xlink:href="#13" y="17.368"/><use xlink:href="#14" y="19.539"/><use xlink:href="#15" y="21.71"/><use xlink:href="#16" y="23.881"/><use xlink:href="#17" y="26.052"/><use xlink:href="#19" y="30.394"/><use xlink:href="#20" y="32.565"/><use xlink:href="#21" y="34.736"/><use xlink:href="#22" y="36.907"/><use xlink:href="#1" y="39.078"/></svg><svg x="4590"><use xlink:href="#a"/><use xlink:href="#b" x="27.996" y="39.053"/><use xlink:href="#7"/><use xlink:href="#8" y="2.171"/><use xlink:href="#9" y="6.513"/><use xlink:href="#10" y="10.855"/><use xlink:href="#11" y="13.026"/><use xlink:href="#12" y="15.197"/><use xlink:href="#13" y="17.368"/><use xlink:href="#14" y="19.539"/><use xlink:href="#15" y="21.71"/><use xlink:href="#16" y="23.881"/><use xlink:href="#17" y="26.052"/><use xlink:href="#19" y="30.394"/><use xlink:href="#20" y="32.565"/><use xlink:href="#21" y="34.736"/><use xlink:href="#22" y="36.907"/><text y="40.748" class="f">(</text><text x="1.002" y="40.748" class="g">seashell</text><text x="9.018" y="40.748" class="f">:</text><text x="11.022" y="40.748" class="h">192.168.2.108</text><text x="24.048" y="40.748" class="f">)&gt;</text><text x="27.054" y="40.748" class="f">c</text></svg><svg x="4680"><use xlink:href="#a"/><use xlink:href="#b" x="28.996" y="39.053"/><use xlink:href="#7"/><use xlink:href="#8" y="2.171"/><use xlink:href="#9" y="6.513"/><use xlink:href="#10" y="10.855"/><use xlink:href="#11" y="13.026"/><use xlink:href="#12" y="15.197"/><use xlink:href="#13" y="17.368"/><use xlink:href="#14" y="19.539"/><use xlink:href="#15" y="21.71"/><use xlink:href="#16" y="23.881"/><use xlink:href="#17" y="26.052"/><use xlink:href="#19" y="30.394"/><use xlink:href="#20" y="32.565"/><use xlink:href="#21" y="34.736"/><use xlink:href="#22" y="36.907"/><text y="40.748" class="f">(</text><text x="1.002" y="40.748" class="g">seashell</text><text x="9.018" y="40.748" class="f">:</text><text x="11.022" y="40.748" class="h">192.168.2.108</text><text x="24.048" y="40.748" class="f">)&gt;</text><text x="27.054" y="40.748" class="f">cl</text></svg><svg x="4770"><use xlink:href="#a"/><use xlink:href="#b" x="29.996" y="39.053"/><use xlink:href="#7"/><use xlink:href="#8" y="2.171"/><use xlink:href="#9" y="6.513"/><use xlink:href="#10" y="10.855"/><use xlink:href="#11" y="13.026"/><use xlink:href="#12" y="15.197"/><use xlink:href="#13" y="17.368"/><use xlink:href="#14" y="19.539"/><use xlink:href="#15" y="21.71"/><use xlink:href="#16" y="23.881"/><use xlink:href="#17" y="26.052"/><use xlink:href="#19" y="30.394"/><use xlink:href="#20" y="32.565"/><use xlink:href="#21" y="34.736"/><use xlink:href="#22" y="36.907"/><text y="40.748" class="f">(</text><text x="1.002" y="40.748" class="g">seashell</text><text x="9.018" y="40.748" class="f">:</text><text x="11.022" y="40.748" class="h">192.168.2.108</text><text x="24.048" y="40.748" class="f">)&gt;</text><text x="27.054" y="40.748" class="f">cle</text></svg><svg x="4860"><use xlink:href="#a"/><use xlink:href="#b" x="30.996" y="39.053"/><use xlink:href="#7"/><use xlink:href="#8" y="2.171"/><use xlink:href="#9" y="6.513"/><use xlink:href="#10" y="10.855"/><use xlink:href="#11" y="13.026"/><use xlink:href="#12" y="15.197"/><use xlink:href="#13" y="17.368"/><use xlink:href="#14" y="19.539"/><use xlink:href="#15" y="21.71"/><use xlink:href="#16" y="23.881"/><use xlink:href="#17" y="26.052"/><use xlink:href="#19" y="30.394"/><use xlink:href="#20" y="32.565"/><use xlink:href="#21" y="34.736"/><use xlink:href="#22" y="36.907"/><text y="40.748" class="f">(</text><text x="1.002" y="40.748" class="g">seashell</text><text x="9.018" y="40.748" class="f">:</text><text x="11.022" y="40.748" class="h">192.168.2.108</text><text x="24.048" y="40.748" class="f">)&gt;</text><text x="27.054" y="40.748" class="f">clea</text></svg><svg x="4950"><use xlink:href="#a"/><use xlink:href="#b" x="31.996" y="39.053"/><use xlink:href="#7"/><use xlink:href="#8" y="2.171"/><use xlink:href="#9" y="6.513"/><use xlink:href="#10" y="10.855"/><use xlink:href="#11" y="13.026"/><use xlink:href="#12" y="15.197"/><use xlink:href="#13" y="17.368"/><use xlink:href="#14" y="19.539"/><use xlink:href="#15" y="21.71"/><use xlink:href="#16" y="23.881"/><use xlink:href="#17" y="26.052"/><use xlink:href="#19" y="30.394"/><use xlink:href="#20" y="32.565"/><use xlink:href="#21" y="34.736"/><use xlink:href="#22" y="36.907"/><use xlink:href="#23" y="39.078"/></svg><svg x="5040"><use xlink:href="#a"/><use xlink:href="#b" x="-.004" y="41.224"/><use xlink:href="#7"/><use xlink:href="#8" y="2.171"/><use xlink:href="#9" y="6.513"/><use xlink:href="#10" y="10.855"/><use xlink:href="#11" y="13.026"/><use xlink:href="#12" y="15.197"/><use xlink:href="#13" y="17.368"/><use xlink:href="#14" y="19.539"/><use xlink:href="#15" y="21.71"/><use xlink:href="#16" y="23.881"/><use xlink:href="#17" y="26.052"/><use xlink:href="#19" y="30.394"/><use xlink:href="#20" y="32.565"/><use xlink:href="#21" y="34.736"/><use xlink:href="#22" y="36.907"/><use xlink:href="#23" y="39.078"/></svg><svg x="5130"><use xlink:href="#a"/><use xlink:href="#b" x="-.004"/></svg><svg x="5220"><use xlink:href="#a"/><use xlink:href="#b" x="26.996"/><use xlink:href="#1"/></svg><svg x="5310"><use xlink:href="#a"/><use xlink:href="#b" x="26.996"/><use xlink:href="#1"/></svg></svg></g></g></svg></svg>