<svg xmlns="http://www.w3.org/2000/svg" xmlns:xlink="http://www.w3.org/1999/xlink" width="940" height="711.3"><rect width="940" height="711.3" rx="5" ry="5" class="a"/><svg y="0%" x="0%"><circle cx="20" cy="20" r="6" fill="#ff5f58"/><circle cx="40" cy="20" r="6" fill="#ffbd2e"/><circle cx="60" cy="20" r="6" fill="#18c132"/></svg><svg height="651.3" viewBox="0 0 90 65.13" width="900" x="15" xmlns="http://www.w3.org/2000/svg" xmlns:xlink="http://www.w3.org/1999/xlink" y="50"><style>@keyframes k{0%{transform:translateX(0)}20.9%{transform:translateX(-90px)}25.5%{transform:translateX(-180px)}59.2%{transform:translateX(-270px)}61%{transform:translateX(-360px)}63.3%{transform:translateX(-450px)}65%{transform:translateX(-540px)}66.6%{transform:translateX(-630px)}68.8%{transform:translateX(-720px)}70.5%{transform:translateX(-810px)}79%{transform:translateX(-1530px)}86.6%{transform:translateX(-1620px)}to{transform:translateX(-1710px)}}.a{fill:#282d35}.f{fill:#b9c0cb}.f,.g,.h{white-space:pre}.g{fill:#b9c0cb;text-decoration:underline}.h{fill:#71bef2}</style><g font-family="Monaco,Consolas,Menlo,'Bitstream Vera Sans Mono','Powerline Symbols',monospace" font-size="1.67"><defs><symbol id="1"><text y="1.67" class="f">pwny:</text><text x="5.01" y="1.67" class="g">/</text><text x="7.014" y="1.67" class="h">root</text><text x="11.022" y="1.67" class="f">#</text></symbol><symbol id="2"><text y="1.67" class="f">pwny:</text><text x="5.01" y="1.67" class="g">/</text><text x="7.014" y="1.67" class="h">root</text><text x="11.022" y="1.67" class="f">#</text><text x="13.026" y="1.67" class="f">player</text></symbol><symbol id="3"><text y="1.67" class="f">Usage:</text><text x="7.014" y="1.67" class="f">player</text><text x="14.028" y="1.67" class="f">&lt;option&gt;</text></symbol><symbol id="4"><text y="1.67" class="f">Options:</text></symbol><symbol id="5"><text x="4.008" y="1.67" class="f">Option</text><text x="14.028" y="1.67" class="f">Arguments</text><text x="27.054" y="1.67" class="f">Description</text></symbol><symbol id="6"><text x="4.008" y="1.67" class="f">------</text><text x="14.028" y="1.67" class="f">---------</text><text x="27.054" y="1.67" class="f">-----------</text></symbol><symbol id="7"><text x="4.008" y="1.67" class="f">info</text><text x="27.054" y="1.67" class="f">Get</text><text x="31.062" y="1.67" class="f">current</text><text x="39.078" y="1.67" class="f">playing</text><text x="47.094" y="1.67" class="f">song.</text></symbol><symbol id="8"><text x="4.008" y="1.67" class="f">play</text><text x="27.054" y="1.67" class="f">Play</text><text x="32.064" y="1.67" class="f">the</text><text x="36.072" y="1.67" class="f">current</text><text x="44.088" y="1.67" class="f">song.</text></symbol><symbol id="9"><text x="4.008" y="1.67" class="f">pause</text><text x="27.054" y="1.67" class="f">Pause</text><text x="33.066" y="1.67" class="f">the</text><text x="37.074" y="1.67" class="f">current</text><text x="45.09" y="1.67" class="f">song.</text></symbol><symbol id="10"><text x="4.008" y="1.67" class="f">next</text><text x="27.054" y="1.67" class="f">Play</text><text x="32.064" y="1.67" class="f">next</text><text x="37.074" y="1.67" class="f">song.</text></symbol><symbol id="11"><text x="4.008" y="1.67" class="f">back</text><text x="27.054" y="1.67" class="f">Play</text><text x="32.064" y="1.67" class="f">previous</text><text x="41.082" y="1.67" class="f">song.</text></symbol><symbol id="12"><text x="4.008" y="1.67" class="f">wave</text><text x="14.028" y="1.67" class="f">&lt;file&gt;</text><text x="27.054" y="1.67" class="f">Play</text><text x="32.064" y="1.67" class="f">audio</text><text x="38.076" y="1.67" class="f">from</text><text x="43.086" y="1.67" class="f">file.</text></symbol><symbol id="a"><path fill="transparent" d="M0 0h90v30H0z"/></symbol><symbol id="b"><path fill="#6f7683" d="M0 0h1.102v2.171H0z"/></symbol></defs><path class="a" d="M0 0h90v65.13H0z"/><g style="animation-duration:8.406681s;animation-iteration-count:infinite;animation-name:k;animation-timing-function:steps(1,end)"><svg width="1800"><svg><use xlink:href="#a"/><use xlink:href="#b" x="-.004"/></svg><svg x="90"><use xlink:href="#a"/><use xlink:href="#b" x="-.004"/></svg><svg x="180"><use xlink:href="#a"/><use xlink:href="#b" x="12.996"/><use xlink:href="#1"/></svg><svg x="270"><use xlink:href="#a"/><use xlink:href="#b" x="13.996"/><text y="1.67" class="f">pwny:</text><text x="5.01" y="1.67" class="g">/</text><text x="7.014" y="1.67" class="h">root</text><text x="11.022" y="1.67" class="f">#</text><text x="13.026" y="1.67" class="f">p</text></svg><svg x="360"><use xlink:href="#a"/><use xlink:href="#b" x="14.996"/><text y="1.67" class="f">pwny:</text><text x="5.01" y="1.67" class="g">/</text><text x="7.014" y="1.67" class="h">root</text><text x="11.022" y="1.67" class="f">#</text><text x="13.026" y="1.67" class="f">pl</text></svg><svg x="450"><use xlink:href="#a"/><use xlink:href="#b" x="15.996"/><text y="1.67" class="f">pwny:</text><text x="5.01" y="1.67" class="g">/</text><text x="7.014" y="1.67" class="h">root</text><text x="11.022" y="1.67" class="f">#</text><text x="13.026" y="1.67" class="f">pla</text></svg><svg x="540"><use xlink:href="#a"/><use xlink:href="#b" x="16.996"/><text y="1.67" class="f">pwny:</text><text x="5.01" y="1.67" class="g">/</text><text x="7.014" y="1.67" class="h">root</text><text x="11.022" y="1.67" class="f">#</text><text x="13.026" y="1.67" class="f">play</text></svg><svg x="630"><use xlink:href="#a"/><use xlink:href="#b" x="17.996"/><text y="1.67" class="f">pwny:</text><text x="5.01" y="1.67" class="g">/</text><text x="7.014" y="1.67" class="h">root</text><text x="11.022" y="1.67" class="f">#</text><text x="13.026" y="1.67" class="f">playe</text></svg><svg x="720"><use xlink:href="#a"/><use xlink:href="#b" x="18.996"/><use xlink:href="#2"/></svg><svg x="810"><use xlink:href="#a"/><use xlink:href="#b" x="19.996"/><use xlink:href="#2"/></svg><svg x="900"><use xlink:href="#a"/><use xlink:href="#b" x="-.004" y="2.146"/><use xlink:href="#2"/></svg><svg x="990"><use xlink:href="#a"/><use xlink:href="#b" x="-.004" y="4.317"/><use xlink:href="#2"/><use xlink:href="#3" y="2.171"/></svg><svg x="1080"><use xlink:href="#a"/><use xlink:href="#b" x="-.004" y="10.83"/><use xlink:href="#2"/><use xlink:href="#3" y="2.171"/><use xlink:href="#4" y="6.513"/></svg><svg x="1170"><use xlink:href="#a"/><use xlink:href="#b" x="-.004" y="15.172"/><use xlink:href="#2"/><use xlink:href="#3" y="2.171"/><use xlink:href="#4" y="6.513"/><use xlink:href="#5" y="10.855"/><use xlink:href="#6" y="13.026"/></svg><svg x="1260"><use xlink:href="#a"/><use xlink:href="#b" x="-.004" y="17.343"/><use xlink:href="#2"/><use xlink:href="#3" y="2.171"/><use xlink:href="#4" y="6.513"/><use xlink:href="#5" y="10.855"/><use xlink:href="#6" y="13.026"/><use xlink:href="#7" y="15.197"/></svg><svg x="1350"><use xlink:href="#a"/><use xlink:href="#b" x="-.004" y="21.685"/><use xlink:href="#2"/><use xlink:href="#3" y="2.171"/><use xlink:href="#4" y="6.513"/><use xlink:href="#5" y="10.855"/><use xlink:href="#6" y="13.026"/><use xlink:href="#7" y="15.197"/><use xlink:href="#8" y="17.368"/><use xlink:href="#9" y="19.539"/></svg><svg x="1440"><use xlink:href="#a"/><use xlink:href="#b" x="-.004" y="26.027"/><use xlink:href="#2"/><use xlink:href="#3" y="2.171"/><use xlink:href="#4" y="6.513"/><use xlink:href="#5" y="10.855"/><use xlink:href="#6" y="13.026"/><use xlink:href="#7" y="15.197"/><use xlink:href="#8" y="17.368"/><use xlink:href="#9" y="19.539"/><use xlink:href="#10" y="21.71"/><use xlink:href="#11" y="23.881"/></svg><svg x="1530"><use xlink:href="#a"/><use xlink:href="#b" x="-.004" y="30.369"/><use xlink:href="#2"/><use xlink:href="#3" y="2.171"/><use xlink:href="#4" y="6.513"/><use xlink:href="#5" y="10.855"/><use xlink:href="#6" y="13.026"/><use xlink:href="#7" y="15.197"/><use xlink:href="#8" y="17.368"/><use xlink:href="#9" y="19.539"/><use xlink:href="#10" y="21.71"/><use xlink:href="#11" y="23.881"/><use xlink:href="#12" y="26.052"/></svg><svg x="1620"><use xlink:href="#a"/><use xlink:href="#b" x="12.996" y="30.369"/><use xlink:href="#2"/><use xlink:href="#3" y="2.171"/><use xlink:href="#4" y="6.513"/><use xlink:href="#5" y="10.855"/><use xlink:href="#6" y="13.026"/><use xlink:href="#7" y="15.197"/><use xlink:href="#8" y="17.368"/><use xlink:href="#9" y="19.539"/><use xlink:href="#10" y="21.71"/><use xlink:href="#11" y="23.881"/><use xlink:href="#12" y="26.052"/><use xlink:href="#1" y="30.394"/></svg><svg x="1710"><use xlink:href="#a"/><use xlink:href="#b" x="12.996" y="30.369"/><use xlink:href="#2"/><use xlink:href="#3" y="2.171"/><use xlink:href="#4" y="6.513"/><use xlink:href="#5" y="10.855"/><use xlink:href="#6" y="13.026"/><use xlink:href="#7" y="15.197"/><use xlink:href="#8" y="17.368"/><use xlink:href="#9" y="19.539"/><use xlink:href="#10" y="21.71"/><use xlink:href="#11" y="23.881"/><use xlink:href="#12" y="26.052"/><use xlink:href="#1" y="30.394"/></svg></svg></g></g></svg></svg>